<?xml version="1.0" standalone="no"?>
<!DOCTYPE svg PUBLIC "-//W3C//DTD SVG 20010904//EN"
 "http://www.w3.org/TR/2001/REC-SVG-20010904/DTD/svg10.dtd">
<svg version="1.0" xmlns="http://www.w3.org/2000/svg"
 width="1333.000000pt" height="2242.000000pt" viewBox="0 0 1333.000000 2242.000000"
 preserveAspectRatio="xMidYMid meet">

<g transform="translate(0.000000,2242.000000) scale(0.100000,-0.100000)"
fill="#000000" stroke="none">
<path d="M6093 22150 c-13 -5 -23 -14 -23 -20 0 -5 -9 -10 -21 -10 -11 0 -17
5 -14 10 3 6 2 10 -4 10 -5 0 -12 -4 -16 -9 -3 -5 -19 -12 -35 -16 -16 -4 -33
-12 -37 -18 -10 -15 -140 -83 -175 -91 -16 -3 -28 -10 -28 -15 0 -5 9 -7 20
-4 11 3 20 1 20 -3 0 -11 -74 -64 -89 -64 -6 0 -17 -11 -23 -25 -6 -13 -19
-27 -29 -30 -10 -4 -31 -21 -46 -40 -16 -18 -52 -49 -82 -69 -77 -52 -102 -76
-134 -124 -15 -23 -33 -42 -40 -42 -8 0 -28 -20 -46 -45 -18 -25 -37 -45 -42
-45 -19 0 -49 21 -49 34 0 8 -8 20 -17 27 -15 13 -16 11 -10 -18 l6 -32 -34
19 c-29 16 -35 17 -35 5 0 -21 -26 -19 -35 3 -6 14 -9 12 -16 -13 -7 -23 -4
-33 11 -47 24 -22 26 -38 5 -38 -19 0 -20 -16 -1 -23 23 -9 13 -87 -14 -107
-21 -16 -21 -17 -4 -22 11 -3 20 -15 21 -28 2 -21 0 -20 -26 10 -32 39 -79 54
-61 20 6 -11 17 -20 25 -20 8 0 15 -4 15 -9 0 -5 -8 -7 -19 -4 -23 6 -37 -13
-22 -31 16 -19 -14 -45 -31 -28 -7 7 -21 12 -32 11 -20 0 -20 -1 2 -11 12 -6
22 -15 22 -20 0 -8 -7 -11 -49 -24 -11 -4 -10 -8 5 -19 18 -14 18 -15 -8 -38
-16 -13 -28 -29 -28 -35 0 -6 -6 -12 -12 -14 -7 -3 -13 -22 -13 -43 0 -33 -4
-40 -25 -45 -15 -4 -24 -12 -22 -21 1 -9 -9 -26 -23 -39 -15 -14 -25 -35 -25
-51 0 -20 -7 -30 -30 -39 -16 -7 -30 -16 -30 -21 0 -4 -9 -10 -20 -14 -10 -3
-29 -26 -41 -50 -18 -36 -20 -47 -9 -59 16 -20 6 -48 -15 -40 -13 6 -15 -3
-10 -65 5 -67 4 -71 -15 -71 -17 0 -19 -3 -10 -19 15 -29 12 -39 -12 -44 -22
-4 -22 -5 -3 -11 20 -7 65 -66 65 -86 0 -6 -15 -19 -32 -30 -30 -19 -31 -21
-12 -26 21 -5 25 -28 10 -52 -14 -23 2 -25 32 -3 17 12 35 21 41 21 19 0 12
-22 -8 -27 -18 -4 -31 -30 -31 -60 0 -7 11 -13 24 -13 33 0 51 -23 32 -43 -12
-12 -13 -18 -2 -32 9 -13 15 -15 20 -7 15 25 21 9 20 -54 -1 -40 -6 -69 -14
-74 -8 -5 -7 -9 5 -14 14 -5 15 -9 5 -21 -9 -11 -10 -18 -1 -28 6 -8 8 -16 5
-19 -3 -3 -8 -47 -11 -98 -3 -65 -2 -90 6 -86 7 5 9 -3 4 -26 -7 -35 -8 -66
-5 -163 1 -33 2 -98 3 -144 0 -58 4 -88 13 -95 9 -7 16 -47 20 -116 3 -67 13
-127 26 -165 12 -33 28 -87 36 -120 8 -32 18 -62 23 -65 4 -3 18 -31 30 -64
17 -45 19 -61 10 -72 -18 -22 -62 -16 -135 19 -51 23 -83 32 -122 32 -50 0
-56 -3 -94 -43 -22 -24 -37 -46 -33 -50 4 -4 15 4 26 17 10 13 19 20 19 16 0
-5 8 -1 18 7 19 18 83 34 81 21 -4 -22 4 -31 41 -43 22 -7 40 -19 40 -27 0 -7
7 -16 15 -19 17 -7 21 -34 5 -34 -5 0 -10 -7 -10 -15 0 -23 -46 -8 -98 32 -24
18 -52 33 -63 33 -10 0 -19 6 -19 13 -1 6 -10 1 -20 -12 -11 -13 -20 -18 -20
-12 0 6 -7 11 -15 11 -14 0 -27 -36 -40 -110 -8 -46 20 -319 40 -395 9 -33 26
-82 39 -110 24 -53 106 -166 162 -225 31 -33 84 -92 102 -115 4 -5 19 -29 32
-52 13 -24 28 -43 32 -43 5 0 7 4 4 8 -8 13 10 33 25 27 19 -7 41 -58 33 -78
-3 -9 -2 -23 3 -31 7 -13 15 -9 47 20 30 28 37 40 32 59 -4 14 -1 34 6 45 11
18 10 23 -6 36 -11 8 -28 14 -37 14 -11 0 -28 19 -44 49 -21 38 -31 48 -46 44
-29 -8 -108 17 -123 38 -7 11 -15 17 -17 14 -3 -2 -20 35 -38 83 -18 48 -37
95 -42 104 -5 10 -9 36 -9 59 0 22 -5 49 -10 60 -9 16 -7 19 9 19 22 0 30 -19
29 -70 0 -48 19 -115 37 -130 8 -7 15 -20 15 -29 0 -47 114 -105 193 -99 38 3
42 1 47 -24 3 -14 17 -36 32 -48 73 -57 83 -73 77 -124 -3 -26 -2 -49 2 -52 4
-2 6 -19 4 -36 -1 -18 2 -38 7 -44 13 -18 -2 -88 -26 -118 -18 -23 -29 -27
-75 -28 -39 0 -57 4 -63 16 -5 9 -16 16 -23 16 -8 0 -15 5 -15 10 0 6 -5 10
-12 10 -19 0 52 -68 90 -86 34 -16 94 -16 150 1 19 6 22 4 22 -21 l0 -29 21
25 c20 24 21 24 16 3 -6 -27 5 -30 24 -6 10 12 11 17 2 20 -7 2 -9 11 -6 20 3
8 0 19 -8 24 -21 13 -27 11 -31 -13 l-3 -23 -13 23 c-19 33 -9 54 23 46 33 -8
35 23 3 36 -13 5 -17 9 -10 9 10 1 12 9 6 34 -4 17 -8 44 -8 60 -1 15 -5 27
-11 26 -13 -1 -23 29 -24 71 -1 20 -7 59 -15 89 -11 45 -11 53 0 58 8 3 14 14
14 26 0 29 -23 90 -36 99 -13 8 -28 66 -29 113 -1 17 -4 36 -8 42 -4 6 -9 28
-12 48 -2 21 -7 46 -11 57 -4 14 -2 18 5 14 7 -5 11 1 11 15 0 18 -2 20 -15 9
-27 -22 -42 3 -27 44 7 18 9 42 5 52 -6 16 -8 15 -14 -11 -4 -16 -7 28 -6 99
2 85 6 131 14 133 11 4 9 150 -3 201 -2 13 0 30 7 38 7 8 9 17 5 21 -3 3 -6 0
-7 -8 0 -16 -17 19 -18 39 -1 15 31 16 47 0 7 -7 12 -8 12 -2 0 16 66 35 95
28 17 -4 32 -1 43 9 9 9 33 17 52 19 28 2 36 8 38 26 3 16 8 22 19 18 8 -3 22
-6 31 -6 15 -1 15 -2 -1 -14 -14 -11 -16 -19 -9 -33 7 -13 7 -25 -1 -38 -6
-11 -12 -35 -14 -54 -1 -19 -8 -38 -15 -43 -10 -8 -10 -9 2 -6 8 3 22 -10 33
-31 11 -20 26 -48 33 -62 8 -15 24 -29 35 -32 11 -3 23 -15 26 -26 3 -12 9
-21 14 -21 5 0 9 -7 9 -16 0 -10 6 -14 14 -11 8 3 31 -12 54 -39 23 -24 47
-44 55 -44 8 0 33 -13 55 -30 23 -16 46 -30 50 -30 5 0 18 -9 30 -20 12 -12
22 -17 22 -12 0 6 10 12 21 15 l21 6 -21 -20 c-25 -24 -26 -33 -5 -53 23 -24
71 -19 109 10 19 14 40 24 47 21 7 -2 30 2 51 9 21 8 48 13 60 13 47 -3 163
14 189 27 37 19 58 17 58 -3 1 -13 5 -10 16 10 15 27 38 35 49 17 3 -5 0 -18
-6 -28 -17 -27 -5 -52 31 -65 33 -13 38 -24 14 -34 -8 -3 -13 -11 -10 -19 3
-7 0 -15 -7 -18 -7 -2 2 -5 20 -5 21 -1 37 -9 47 -23 9 -12 16 -16 16 -9 0 7
11 26 25 43 14 16 25 36 25 44 0 19 19 18 26 -1 11 -28 31 -15 48 30 10 25 22
45 27 45 5 0 9 5 9 11 0 5 14 38 30 71 17 34 32 75 34 90 2 16 10 36 18 46 11
12 16 45 17 112 1 62 6 98 15 105 7 6 15 17 18 26 4 10 23 18 52 21 24 3 52
13 61 22 9 9 23 16 31 16 16 0 24 30 21 85 -2 39 -3 40 -39 39 -30 -1 -38 2
-38 17 0 19 -44 59 -66 59 -8 0 -14 4 -14 9 0 5 -13 14 -30 20 -16 5 -30 14
-30 19 0 5 -17 14 -39 20 -21 7 -44 19 -51 27 -7 8 -20 15 -30 15 -9 0 -25 9
-35 20 -10 11 -24 20 -32 20 -21 0 -114 29 -146 46 -16 7 -44 14 -63 14 -19 0
-51 8 -72 19 -20 10 -42 16 -49 14 -11 -4 -36 30 -28 39 2 2 -22 5 -55 6 -32
1 -73 9 -91 16 -18 8 -50 11 -74 8 -35 -4 -47 0 -61 17 -10 11 -23 21 -29 21
-6 0 -34 11 -62 25 -51 26 -86 25 -76 -1 3 -8 1 -14 -5 -14 -12 0 -25 47 -17
60 4 6 18 10 33 11 18 0 35 10 50 30 13 16 19 29 13 29 -6 0 -11 -5 -11 -11 0
-6 -5 -7 -12 -2 -7 4 -17 8 -23 8 -5 0 -11 10 -13 23 -2 12 1 22 7 22 6 0 11
14 11 30 0 28 -2 30 -40 30 -38 0 -40 -2 -40 -29 0 -25 5 -30 28 -34 22 -3 21
-4 -10 -6 -64 -2 -68 3 -68 86 0 72 11 103 39 103 12 0 24 36 17 49 -3 5 8 14
26 20 17 6 28 14 24 19 -8 7 -13 8 -42 11 -8 0 -14 9 -13 19 1 9 1 43 0 74 -1
51 -3 57 -23 60 -32 4 -30 34 2 31 21 -2 23 -1 10 10 -19 15 -24 41 -23 129 0
52 -3 65 -13 61 -19 -7 -18 12 2 42 9 13 13 29 9 34 -3 6 2 19 12 29 10 10 23
27 29 38 6 10 20 19 30 19 14 0 18 6 16 23 -1 15 2 22 10 20 7 -3 19 1 26 9 7
7 22 13 32 13 10 0 21 8 24 18 4 10 12 19 19 20 43 5 77 16 77 23 0 5 11 7 25
3 22 -6 62 7 115 35 9 5 39 6 68 3 39 -3 57 -1 70 11 10 9 40 21 67 27 27 6
55 16 62 22 7 6 13 7 13 3 0 -4 11 4 25 19 13 14 33 26 43 26 12 0 22 9 25 21
7 25 33 20 31 -5 -1 -9 3 -15 10 -13 6 3 10 9 9 15 -2 6 22 22 52 36 29 14 57
31 60 36 7 12 26 14 24 3 -1 -5 -1 -16 0 -25 1 -22 21 -24 21 -3 0 12 13 15
56 15 31 0 71 7 91 17 24 11 37 13 42 5 7 -12 137 -36 150 -28 4 3 43 6 87 7
43 1 93 8 110 14 55 22 108 26 180 12 80 -16 94 -22 94 -43 0 -18 15 -18 34 1
18 18 36 19 36 3 0 -9 22 -13 78 -13 89 1 102 -2 102 -21 0 -19 52 -52 58 -36
6 19 30 14 37 -7 8 -25 31 -34 56 -21 22 12 25 -2 9 -44 -7 -20 -6 -26 5 -26
16 0 30 -35 20 -50 -4 -6 -6 -35 -6 -66 0 -64 14 -90 90 -169 53 -54 119 -91
107 -59 -3 9 -6 18 -6 20 0 2 -6 4 -12 4 -21 1 -131 108 -123 120 4 6 0 17
-10 24 -32 23 -28 136 5 136 5 0 14 -15 19 -32 6 -23 9 -27 10 -12 1 26 31 56
31 31 0 -8 8 -21 17 -28 15 -13 16 -12 11 8 -4 13 -2 26 3 29 5 3 9 1 9 -5 0
-5 13 -12 29 -16 17 -3 47 -20 67 -36 36 -29 61 -38 49 -19 -3 6 1 7 9 4 8 -3
18 -15 22 -26 3 -12 24 -38 45 -59 24 -24 39 -47 39 -63 0 -31 10 -56 22 -56
5 0 7 19 4 43 -5 36 -4 39 7 23 6 -10 22 -31 35 -46 12 -15 22 -39 22 -52 0
-13 4 -28 8 -33 14 -16 32 -89 32 -128 0 -20 4 -38 9 -41 5 -3 9 -31 10 -62 0
-42 6 -63 20 -78 10 -12 22 -41 26 -66 4 -25 13 -55 20 -66 8 -12 11 -31 8
-43 -3 -12 5 -54 17 -93 17 -55 20 -75 11 -87 -22 -31 -23 -42 -5 -62 13 -15
19 -17 26 -7 10 17 23 -1 40 -59 7 -24 15 -43 19 -43 4 0 9 -10 13 -23 3 -13
14 -33 25 -46 11 -12 22 -40 26 -62 4 -21 11 -39 16 -39 5 0 6 -17 3 -39 -3
-22 -1 -47 5 -57 6 -11 11 -13 11 -6 0 6 5 12 10 12 12 0 12 -144 -1 -220 -14
-84 -18 -161 -23 -462 -3 -194 -10 -300 -20 -352 -16 -75 -21 -168 -8 -118 19
65 81 -28 82 -120 0 -43 -33 -76 -57 -56 -17 13 -46 -9 -39 -29 3 -8 2 -12 -3
-9 -16 10 -71 -6 -71 -20 0 -8 -5 -14 -11 -14 -13 0 -52 -87 -44 -99 3 -6 23
-4 48 5 32 11 50 25 68 54 27 45 53 51 92 20 35 -28 134 -28 179 0 52 32 127
172 128 239 0 58 -35 121 -67 121 -13 0 -54 16 -91 37 -111 60 -116 62 -121
57 -3 -3 0 -9 8 -13 10 -6 9 -10 -4 -15 -25 -9 -26 -8 -18 27 3 17 6 54 4 81
-3 64 15 145 43 198 34 63 95 157 117 179 10 10 19 23 19 29 0 5 6 7 14 4 9
-4 15 8 19 44 3 27 14 69 25 93 22 49 52 158 52 188 0 10 8 29 19 42 24 31 29
60 47 259 8 90 19 169 24 174 6 6 10 21 10 36 0 37 11 71 21 64 5 -3 10 16 11
43 1 26 2 62 4 78 1 17 3 57 4 90 2 69 17 147 30 155 7 4 2 70 -15 185 -3 17
-4 59 -4 95 3 207 4 210 18 205 22 -9 5 67 -34 151 -19 41 -35 77 -35 80 0 3
-11 19 -25 36 -30 36 -33 53 -6 38 29 -15 33 -12 13 11 -22 26 -100 80 -124
84 -26 5 -38 14 -38 30 0 8 -7 11 -18 8 -10 -2 -24 3 -31 11 -11 13 -11 16 -1
16 19 0 -58 59 -107 82 -24 11 -43 26 -43 34 0 8 -4 14 -10 14 -5 0 -7 -7 -4
-15 8 -19 -4 -19 -62 1 -25 8 -51 13 -58 11 -7 -3 -50 1 -97 8 -46 7 -74 13
-62 14 32 1 36 16 8 31 -28 15 -70 5 -45 -10 9 -6 10 -10 3 -10 -6 0 -15 5
-18 10 -3 6 -17 7 -31 4 -14 -4 -24 -2 -24 5 0 6 11 11 25 11 14 0 25 5 25 11
0 14 -92 1 -105 -15 -5 -7 -17 -15 -25 -18 -21 -7 -70 29 -70 53 0 20 -15 26
-25 9 -9 -15 -35 -12 -35 3 0 8 9 22 20 32 26 23 25 28 -5 42 -22 10 -25 9
-25 -8 0 -10 -3 -19 -7 -19 -12 0 -55 120 -49 136 3 8 0 14 -7 14 -9 0 -9 2 1
8 10 7 7 15 -10 37 -13 17 -22 42 -22 64 1 20 -1 28 -3 19 -3 -10 -7 -18 -10
-18 -10 0 -32 34 -33 50 0 8 -10 20 -22 25 -13 6 -24 20 -26 33 -3 17 -10 22
-32 22 -32 0 -103 60 -114 96 -4 12 -17 25 -29 29 -19 6 -19 8 -4 12 9 2 17
13 17 23 0 14 -10 21 -37 26 -36 7 -73 31 -73 47 0 5 9 7 20 4 11 -3 20 -1 20
4 0 10 -41 22 -63 17 -9 -2 -32 14 -51 35 -20 22 -29 36 -21 33 22 -8 18 12
-4 24 -11 5 -43 15 -73 21 -29 6 -63 17 -76 25 -12 8 -44 19 -70 25 -26 5 -64
14 -85 18 -20 5 -40 5 -43 0 -3 -5 -19 -3 -37 4 -34 14 -127 11 -127 -4 0 -5
20 -9 45 -9 25 0 45 -5 45 -10 0 -7 -31 -10 -84 -8 -78 3 -86 1 -107 -21 -19
-20 -28 -22 -65 -17 -36 4 -44 3 -44 -10 0 -14 -2 -14 -16 1 -9 9 -19 13 -23
9 -3 -4 0 -9 7 -11 6 -3 10 -9 6 -14 -8 -14 -24 -11 -24 4 0 7 -14 20 -32 28
-41 18 -48 39 -14 39 29 0 35 16 9 23 -10 2 1 2 25 -1 58 -6 54 14 -4 22 -30
4 -52 2 -61 -6 -10 -8 -17 -8 -24 -1 -8 8 -7 13 0 17 6 4 11 11 11 17 0 15
-32 10 -47 -8 -14 -17 -14 -17 -9 0 3 10 6 27 6 38 0 10 7 19 15 19 8 0 15 5
15 11 0 7 -10 9 -25 7 -29 -6 -32 0 -9 17 14 10 15 14 3 33 -8 12 -24 22 -35
22 -17 0 -21 5 -17 19 4 15 -1 18 -26 17 -19 -1 -31 -6 -31 -15 0 -8 -6 -11
-15 -7 -8 3 -15 1 -15 -4 0 -14 -33 -13 -47 1 -14 14 -94 20 -109 8 -6 -5 -32
0 -62 11 -29 11 -52 15 -52 10 0 -15 -27 -12 -44 5 -17 17 -22 17 -53 5z m624
-316 c-3 -3 -12 -4 -19 -1 -8 3 -5 6 6 6 11 1 17 -2 13 -5z m-67 -14 c0 -5 -4
-10 -10 -10 -5 0 -10 5 -10 10 0 6 5 10 10 10 6 0 10 -4 10 -10z m217 4 c-3
-3 -12 -4 -19 -1 -8 3 -5 6 6 6 11 1 17 -2 13 -5z m-1527 -269 c0 -8 -4 -15
-10 -15 -5 0 -10 7 -10 15 0 8 5 15 10 15 6 0 10 -7 10 -15z m-145 -75 c3 -5
2 -10 -4 -10 -5 0 -13 5 -16 10 -3 6 -2 10 4 10 5 0 13 -4 16 -10z m-52 -99
c14 -21 23 -42 20 -45 -15 -15 -31 -4 -37 25 -3 17 -10 28 -15 25 -5 -3 -7 3
-4 14 3 11 6 20 8 20 1 0 14 -18 28 -39z m64 -27 c-3 -3 -12 -4 -19 -1 -8 3
-5 6 6 6 11 1 17 -2 13 -5z m3777 -686 c-4 -6 -10 -5 -15 3 -14 22 -10 33 6
19 8 -7 12 -17 9 -22z m-2774 -43 c0 -8 -4 -15 -10 -15 -5 0 -7 7 -4 15 4 8 8
15 10 15 2 0 4 -7 4 -15z m-36 -14 c8 -12 -41 -31 -77 -30 -29 2 -30 2 -5 6
14 2 32 11 38 19 14 16 36 19 44 5z m-209 -41 c3 -6 -4 -10 -17 -10 -18 0 -20
2 -8 10 19 12 18 12 25 0z m3165 -700 c0 -5 -2 -10 -4 -10 -3 0 -8 5 -11 10
-3 6 -1 10 4 10 6 0 11 -4 11 -10z m-3783 -802 c-3 -8 -6 -5 -6 6 -1 11 2 17
5 13 3 -3 4 -12 1 -19z m-51 -55 c-8 -20 -11 -16 -20 21 -6 26 -6 27 9 12 10
-9 14 -24 11 -33z m649 -3 c13 -11 21 -11 35 -2 14 9 21 8 30 -3 7 -8 19 -15
26 -15 11 0 50 -17 114 -49 8 -4 21 -21 29 -37 7 -16 24 -41 37 -55 14 -14 21
-28 17 -32 -3 -4 1 -7 9 -7 20 0 26 -18 19 -49 -8 -32 -27 -38 -36 -12 -3 12
-13 21 -21 21 -8 0 -12 -4 -9 -10 7 -11 -18 -14 -28 -4 -4 4 -43 6 -87 5 -45
-1 -115 3 -156 10 -64 10 -78 10 -86 -2 -8 -11 -9 -10 -4 3 4 13 -2 20 -19 24
-13 3 -29 12 -35 19 -10 12 -45 9 -125 -11 -17 -4 -26 -3 -22 3 3 5 -8 17 -24
27 -38 22 -38 69 -1 74 12 2 30 14 38 28 12 18 25 24 53 24 32 1 34 2 18 14
-16 12 -15 14 14 20 17 3 45 6 61 6 16 0 31 6 33 13 7 17 99 14 120 -3z m-665
-34 c0 -3 -4 -8 -10 -11 -5 -3 -10 -1 -10 4 0 6 5 11 10 11 6 0 10 -2 10 -4z
m-260 -92 c0 -14 -4 -23 -10 -19 -5 3 -10 15 -10 26 0 10 5 19 10 19 6 0 10
-12 10 -26z m100 -50 c0 -49 -17 -57 -57 -29 -16 12 -22 12 -26 2 -3 -6 -6 6
-6 28 l-1 40 45 1 45 1 0 -43z m417 29 c4 -9 1 -19 -5 -21 -7 -2 -12 -8 -12
-14 0 -6 7 -8 15 -4 8 3 14 0 12 -7 -1 -7 7 -12 17 -12 11 0 21 -6 24 -13 2
-8 -11 -13 -42 -14 -25 -1 -53 -2 -63 -2 -9 -1 -18 5 -20 12 -3 7 4 12 16 12
17 0 21 6 21 33 0 47 23 66 37 30z m-167 -75 c0 -5 -4 -8 -10 -8 -5 0 -10 10
-10 23 0 18 2 19 10 7 5 -8 10 -18 10 -22z m299 -24 c-14 -18 -24 -11 -15 11
3 9 11 13 16 10 8 -5 7 -11 -1 -21z m141 5 c0 -14 -36 -11 -49 4 -8 11 -5 13
19 9 17 -2 30 -8 30 -13z m465 -69 c3 -5 1 -10 -4 -10 -6 0 -11 5 -11 10 0 6
2 10 4 10 3 0 8 -4 11 -10z m-365 -10 c0 -5 -7 -10 -15 -10 -8 0 -15 5 -15 10
0 6 7 10 15 10 8 0 15 -4 15 -10z m130 0 c0 -5 -4 -10 -10 -10 -5 0 -10 5 -10
10 0 6 5 10 10 10 6 0 10 -4 10 -10z m127 -32 c28 -29 53 -75 53 -97 0 -8 -31
-14 -145 -28 l-50 -6 33 37 c17 20 37 57 43 81 6 25 17 45 23 45 7 0 26 -15
43 -32z m153 17 c0 -8 7 -15 15 -15 8 0 15 -5 15 -11 0 -7 15 -26 34 -44 27
-25 35 -41 37 -75 2 -28 -1 -45 -9 -48 -6 -2 -12 4 -12 13 0 9 -4 13 -10 10
-5 -3 -10 1 -10 11 0 21 -61 136 -78 147 -7 5 -10 12 -7 18 9 14 25 11 25 -6z
m-557 -70 c12 -3 30 -20 40 -36 16 -29 16 -30 -1 -27 -9 2 -19 14 -20 27 -3
19 -6 21 -13 10 -6 -10 -9 -10 -9 -1 0 6 -6 12 -14 12 -20 0 -27 15 -19 37 7
17 8 17 11 1 2 -10 13 -20 25 -23z m-879 -130 c14 -91 13 -112 -4 -85 -8 13
-10 12 -10 -2 0 -10 -4 -18 -10 -18 -5 0 -10 6 -10 14 0 8 -7 16 -15 20 -16 6
-11 29 10 56 7 8 15 24 19 34 5 16 4 17 -8 7 -8 -7 -20 -10 -26 -6 -6 4 -10
-9 -10 -34 0 -42 -13 -54 -24 -24 -4 9 -2 21 4 27 16 16 12 36 -7 29 -14 -6
-14 -3 3 19 10 14 22 24 27 21 4 -2 7 3 7 12 0 9 5 13 10 10 6 -3 13 2 17 11
8 22 9 19 27 -91z m1602 48 c-11 -11 -19 6 -11 24 8 17 8 17 12 0 3 -10 2 -21
-1 -24z m-660 -81 c-3 -6 -16 -7 -29 -4 -22 6 -22 6 3 12 28 8 35 6 26 -8z
m-1031 -92 c0 -57 9 -70 46 -70 16 0 29 -4 29 -9 0 -14 -59 -41 -89 -41 -30 0
-59 -22 -90 -67 -23 -34 -61 -45 -61 -18 0 9 6 18 13 20 6 3 13 19 14 36 1 17
7 37 13 44 5 6 7 14 4 17 -3 4 2 20 10 37 9 16 16 46 16 66 l0 36 48 -3 47 -3
0 -45z m1540 -50 c3 -5 1 -10 -4 -10 -6 0 -11 5 -11 10 0 6 2 10 4 10 3 0 8
-4 11 -10z m-1349 -345 c16 -8 25 -15 20 -15 -5 0 -3 -7 4 -15 17 -21 3 -35
-36 -35 -29 0 -34 3 -34 24 0 23 9 56 15 56 1 0 16 -7 31 -15z m-296 -180 c11
-13 10 -14 -4 -9 -9 3 -16 10 -16 15 0 13 6 11 20 -6z m400 -27 c0 -26 -17
-14 -22 17 -4 20 -3 23 8 14 8 -6 14 -20 14 -31z"/>
<path d="M7558 21788 c13 -6 21 -17 18 -24 -6 -16 10 -28 25 -19 14 9 -29 55
-50 54 -11 0 -8 -4 7 -11z"/>
<path d="M7721 21721 c13 -11 28 -17 33 -14 11 7 -22 33 -42 33 -9 0 -6 -7 9
-19z"/>
<path d="M7670 21711 c0 -5 7 -12 16 -15 14 -5 15 -4 4 9 -14 17 -20 19 -20 6z"/>
<path d="M7767 21662 c-21 -23 -22 -48 -2 -56 20 -7 19 -26 -1 -26 -13 0 -13
-4 3 -30 23 -40 35 -38 27 5 -3 19 -2 35 3 35 16 0 33 -24 33 -46 0 -27 16
-40 23 -20 3 7 -1 23 -9 35 -8 11 -12 21 -8 21 4 0 -5 11 -18 25 -18 18 -24
32 -20 50 5 29 -8 32 -31 7z"/>
<path d="M8016 21485 c-9 -26 -7 -32 5 -12 6 10 9 21 6 23 -2 3 -7 -2 -11 -11z"/>
<path d="M7991 21408 c-10 -30 -9 -31 4 -14 8 11 15 26 15 33 0 22 -8 14 -19
-19z"/>
<path d="M4980 21400 c0 -11 5 -20 11 -20 7 0 18 -8 25 -17 12 -17 13 -16 14
5 0 24 -21 52 -39 52 -6 0 -11 -9 -11 -20z"/>
<path d="M8146 21083 c-9 -9 -7 -33 3 -33 12 0 22 28 12 34 -5 3 -11 3 -15 -1z"/>
<path d="M8180 21026 c0 -2 7 -6 15 -10 8 -3 15 -1 15 4 0 6 -7 10 -15 10 -8
0 -15 -2 -15 -4z"/>
<path d="M8533 20956 c0 -10 9 -13 32 -9 19 3 35 0 39 -6 4 -6 19 -11 34 -10
25 0 25 1 -8 13 -66 24 -97 28 -97 12z"/>
<path d="M4738 20913 c7 -3 16 -2 19 1 4 3 -2 6 -13 5 -11 0 -14 -3 -6 -6z"/>
<path d="M7273 20688 c2 -7 12 -13 22 -13 10 0 20 6 23 13 2 7 -6 12 -23 12
-17 0 -25 -5 -22 -12z"/>
<path d="M7870 20339 c0 -5 5 -7 10 -4 6 3 10 8 10 11 0 2 -4 4 -10 4 -5 0
-10 -5 -10 -11z"/>
<path d="M5584 20109 c-3 -6 -1 -16 5 -22 8 -8 11 -5 11 11 0 24 -5 28 -16 11z"/>
<path d="M5820 20110 c0 -5 7 -10 16 -10 8 0 12 5 9 10 -3 6 -10 10 -16 10 -5
0 -9 -4 -9 -10z"/>
<path d="M9155 19800 c3 -5 10 -10 16 -10 5 0 9 5 9 10 0 6 -7 10 -16 10 -8 0
-12 -4 -9 -10z"/>
<path d="M5660 19630 c0 -5 7 -10 15 -10 8 0 15 5 15 10 0 6 -7 10 -15 10 -8
0 -15 -4 -15 -10z"/>
<path d="M7940 19263 c-8 -3 -18 -10 -21 -16 -4 -5 -27 -12 -53 -14 -26 -3
-49 -9 -52 -14 -2 -4 -34 -5 -69 -2 -43 4 -65 2 -65 -5 0 -6 6 -12 13 -15 6
-2 -13 -4 -43 -3 -68 0 -165 -9 -179 -18 -24 -15 -145 -23 -181 -11 -23 7 -70
-11 -70 -27 0 -13 -44 -38 -66 -38 -7 0 -14 -10 -16 -22 -2 -13 -11 -24 -23
-27 -29 -5 -75 -40 -75 -57 0 -8 4 -14 9 -14 6 0 11 -17 13 -37 3 -33 7 -38
31 -41 31 -4 31 -3 16 -36 -8 -17 -19 -25 -33 -23 -31 3 -32 -29 -2 -68 14
-18 26 -43 26 -55 0 -12 5 -31 12 -43 7 -12 13 -26 14 -32 5 -19 27 -80 35
-97 5 -10 9 -28 9 -40 0 -28 39 -83 40 -56 0 9 4 20 10 23 6 4 7 -6 4 -25 -5
-22 -3 -30 6 -28 6 2 17 -5 23 -16 11 -17 35 -41 117 -119 14 -13 41 -27 60
-30 19 -3 46 -8 60 -11 76 -13 134 -18 215 -17 85 1 90 2 111 28 l22 28 -26 5
c-37 7 -142 72 -142 87 0 8 13 13 31 13 17 0 42 9 56 20 29 23 94 25 183 7 45
-10 56 -16 58 -34 5 -31 52 -33 52 -3 0 23 1 24 34 8 21 -9 29 -8 44 5 10 10
23 17 29 17 5 0 20 9 33 20 55 48 -32 128 -217 199 -29 12 -53 18 -53 15 0 -4
-6 -2 -13 4 -15 13 -146 37 -254 48 -58 5 -74 10 -78 25 -8 23 -27 29 -107 30
-66 1 -67 1 -56 25 7 15 23 26 45 30 26 5 33 11 33 29 0 12 -7 28 -15 35 -21
17 -19 37 5 50 11 6 18 15 15 19 -7 12 43 20 83 14 25 -5 38 -1 53 16 15 16
30 21 56 19 22 -1 38 3 41 10 2 7 15 12 29 12 14 0 47 8 74 17 56 20 72 13 38
-17 l-24 -21 42 4 c23 3 43 1 45 -4 4 -12 26 -13 116 -4 61 7 75 5 91 -9 11
-10 18 -23 15 -30 -3 -7 7 -18 21 -26 14 -7 25 -17 25 -21 0 -5 7 -6 15 -3 8
4 21 1 28 -4 7 -6 36 -11 65 -10 45 0 52 3 52 20 0 33 -45 97 -69 98 -9 1 -66
80 -66 91 0 5 -5 13 -11 17 -5 4 -23 24 -38 45 -16 20 -34 37 -42 37 -7 0 -28
9 -46 20 -18 11 -41 20 -50 20 -10 0 -18 4 -18 9 0 5 -8 11 -17 14 -10 2 -25
7 -33 10 -8 3 -22 3 -30 0z m60 -252 c0 -5 -14 -11 -32 -13 -28 -5 -29 -4 -13
9 21 15 45 17 45 4z m265 -41 c3 -6 -1 -7 -9 -4 -18 7 -21 14 -7 14 6 0 13 -4
16 -10z m-845 -60 c0 -5 -4 -10 -10 -10 -5 0 -10 5 -10 10 0 6 5 10 10 10 6 0
10 -4 10 -10z m905 0 c3 -5 1 -10 -4 -10 -6 0 -11 5 -11 10 0 6 2 10 4 10 3 0
8 -4 11 -10z m-697 -288 c2 -7 -3 -12 -12 -12 -9 0 -16 7 -16 16 0 17 22 14
28 -4z m132 2 c0 -17 -22 -14 -28 4 -2 7 3 12 12 12 9 0 16 -7 16 -16z m-245
-51 c3 -20 20 -49 36 -65 16 -16 29 -33 29 -38 0 -9 -68 15 -118 42 -18 10
-41 18 -52 18 -11 0 -20 4 -20 9 0 15 18 22 25 10 5 -6 20 3 40 25 18 20 37
36 43 36 5 0 13 -16 17 -37z m339 22 c3 -8 12 -15 20 -15 8 0 17 -9 21 -19 3
-11 12 -18 20 -15 19 8 27 -11 16 -40 -11 -27 -43 -39 -138 -51 -53 -7 -75 7
-30 19 23 6 77 74 77 98 0 8 -5 19 -12 26 -9 9 -8 12 4 12 9 0 18 -7 22 -15z
m-560 -22 c-8 -16 -23 -39 -35 -53 l-21 -25 7 30 c6 26 40 71 57 74 3 1 0 -11
-8 -26z m-61 -52 c-3 -11 -11 -22 -18 -25 -11 -4 -11 1 -3 25 11 31 29 31 21
0z"/>
<path d="M7736 18981 c-12 -5 -15 -10 -9 -14 6 -4 16 0 23 8 14 17 13 17 -14
6z"/>
<path d="M8020 18940 c-12 -8 -10 -10 8 -10 13 0 20 4 17 10 -7 12 -6 12 -25
0z"/>
<path d="M5011 18723 c2 -27 15 -42 28 -33 12 7 12 11 2 24 -14 17 -32 21 -30
9z"/>
<path d="M5155 18630 c-3 -5 -3 -15 1 -21 6 -11 23 6 24 24 0 10 -18 9 -25 -3z"/>
<path d="M8230 18626 c0 -9 5 -16 10 -16 6 0 10 4 10 9 0 6 -4 13 -10 16 -5 3
-10 -1 -10 -9z"/>
<path d="M5100 18500 c0 -13 7 -20 20 -20 24 0 25 6 6 26 -20 19 -26 18 -26
-6z"/>
<path d="M5152 18449 c2 -18 9 -34 16 -37 10 -3 13 5 10 29 -2 18 -9 34 -16
37 -10 3 -13 -5 -10 -29z"/>
<path d="M8950 18460 c-30 -10 -81 -19 -112 -19 -54 -1 -58 -3 -57 -23 0 -13
3 -18 5 -11 5 12 9 12 49 -2 16 -5 17 -8 5 -16 -12 -9 -11 -10 5 -6 11 3 31 8
45 12 24 5 24 5 3 -4 -13 -6 -23 -15 -23 -20 0 -5 10 -6 23 -2 36 11 87 45 87
58 0 7 25 20 55 28 30 9 55 18 55 21 0 11 -91 1 -140 -16z"/>
<path d="M5082 18380 c-6 -11 -12 -38 -12 -60 0 -36 3 -40 24 -40 32 0 45 20
14 21 -17 1 -18 3 -5 6 17 5 22 30 11 71 -8 27 -16 28 -32 2z"/>
<path d="M5141 18384 c0 -11 3 -14 6 -6 3 7 2 16 -1 19 -3 4 -6 -2 -5 -13z"/>
<path d="M5035 18370 c-3 -5 -1 -10 4 -10 6 0 11 5 11 10 0 6 -2 10 -4 10 -3
0 -8 -4 -11 -10z"/>
<path d="M9069 18355 c-36 -20 -43 -44 -21 -69 20 -23 43 -91 37 -109 -2 -7
-6 -48 -9 -92 -9 -146 -22 -194 -87 -332 -48 -101 -50 -125 -8 -81 17 18 34
39 39 47 4 8 18 15 31 16 18 1 25 9 30 34 4 18 16 41 28 52 12 12 24 34 28 50
3 16 9 29 14 29 5 0 9 13 9 28 0 15 4 32 9 38 27 30 59 188 55 271 -2 31 -12
72 -22 92 -17 32 -23 36 -63 38 -24 2 -56 -4 -70 -12z m-2 -597 c-3 -8 -6 -5
-6 6 -1 11 2 17 5 13 3 -3 4 -12 1 -19z"/>
<path d="M5090 18266 c0 -2 9 -6 20 -9 11 -3 18 -1 14 4 -5 9 -34 13 -34 5z"/>
<path d="M6940 18041 c0 -18 19 -51 30 -51 16 0 11 19 -10 42 -11 12 -20 16
-20 9z"/>
<path d="M5095 17949 c-4 -6 0 -18 9 -27 15 -15 16 -15 16 5 0 25 -15 38 -25
22z"/>
<path d="M6420 17950 c0 -5 5 -10 11 -10 5 0 7 5 4 10 -3 6 -8 10 -11 10 -2 0
-4 -4 -4 -10z"/>
<path d="M6400 17909 c0 -24 23 -21 28 4 2 10 -3 17 -12 17 -10 0 -16 -9 -16
-21z"/>
<path d="M6525 17859 c-4 -6 -4 -13 -1 -16 8 -8 36 5 36 17 0 13 -27 13 -35
-1z"/>
<path d="M6340 17842 c-31 -21 -80 -87 -80 -108 0 -13 28 0 40 19 14 22 16 27
19 47 0 6 8 10 16 10 8 0 15 5 15 11 0 7 8 18 18 25 25 19 2 16 -28 -4z"/>
<path d="M5170 17745 c0 -8 6 -15 14 -15 22 0 28 17 10 24 -22 9 -24 8 -24 -9z"/>
<path d="M6082 17695 c-12 -14 -22 -32 -22 -40 0 -9 -7 -18 -15 -21 -19 -8
-47 -67 -47 -98 0 -18 -5 -22 -19 -19 -17 5 -19 0 -18 -45 2 -49 3 -51 36 -57
19 -3 41 -9 49 -12 9 -3 14 2 14 16 0 12 6 21 13 21 14 1 67 45 67 58 0 4 11
31 24 58 34 70 36 88 10 92 -14 2 -24 14 -31 35 -11 40 -33 45 -61 12z"/>
<path d="M5230 17700 c0 -5 5 -10 11 -10 5 0 7 5 4 10 -3 6 -8 10 -11 10 -2 0
-4 -4 -4 -10z"/>
<path d="M9002 17674 c-7 -14 -8 -23 -2 -19 15 9 32 45 22 45 -5 0 -14 -12
-20 -26z"/>
<path d="M5277 17663 c-3 -5 -3 -19 -1 -33 15 -93 15 -95 5 -80 -6 8 -11 23
-11 33 0 11 -8 17 -21 17 -15 0 -19 -5 -15 -15 6 -17 -9 -20 -20 -4 -4 7 -12
1 -19 -17 -7 -17 -9 -33 -4 -38 5 -6 9 -27 9 -48 0 -21 3 -38 8 -38 16 0 35
47 33 83 -1 20 3 37 9 37 5 0 10 -9 10 -20 0 -13 7 -20 20 -20 27 0 25 -16 -5
-36 -14 -9 -25 -22 -25 -29 0 -7 -7 -15 -15 -19 -8 -3 -15 -17 -15 -31 0 -14
-6 -26 -12 -26 -7 -1 1 -4 17 -8 40 -8 38 -25 -2 -29 -19 -2 -33 -9 -33 -17 0
-8 7 -11 20 -8 34 9 52 -15 49 -65 -2 -33 1 -46 14 -53 26 -15 20 -31 -10 -28
-43 3 -63 0 -63 -11 0 -5 7 -7 15 -4 21 8 41 -6 24 -17 -11 -7 -10 -9 4 -9 9
0 17 -4 17 -10 0 -16 40 -12 46 5 8 21 36 19 32 -2 -2 -10 -18 -21 -40 -26
l-37 -9 5 -101 c2 -56 9 -112 15 -124 13 -24 4 -77 -11 -68 -6 3 -10 11 -10
16 0 6 5 7 10 4 14 -8 13 -1 -5 42 -8 19 -15 52 -16 72 l-1 36 -10 -28 c-8
-22 -7 -38 5 -68 8 -21 13 -47 11 -57 -6 -20 19 -75 29 -65 4 3 7 -4 7 -16 0
-14 -4 -20 -12 -15 -8 5 -9 2 -5 -10 4 -10 3 -15 -3 -11 -6 3 -10 14 -10 24 0
10 -7 24 -15 31 -12 10 -15 9 -15 -6 0 -11 7 -32 15 -48 8 -15 15 -35 15 -42
0 -8 3 -14 8 -14 4 0 18 -23 30 -51 13 -28 35 -67 49 -87 l25 -37 -5 -275 c-4
-197 -11 -322 -27 -440 -11 -91 -23 -171 -25 -177 -2 -7 -19 -13 -37 -13 -49
0 -190 -36 -236 -60 -52 -27 -92 -73 -125 -142 -15 -31 -27 -60 -27 -63 0 -4
-6 -21 -14 -38 -8 -18 -26 -66 -41 -107 -58 -164 -143 -325 -221 -415 -14 -16
-34 -49 -44 -71 -20 -45 -42 -200 -35 -249 8 -65 15 -198 19 -360 5 -186 23
-345 67 -575 11 -59 36 -247 44 -330 11 -119 14 -129 56 -156 46 -29 48 -34
12 -29 -16 2 -38 4 -50 4 -14 1 -23 7 -23 16 0 10 -10 15 -30 15 -23 0 -42 11
-74 44 -50 49 -49 45 -76 261 -11 88 -27 210 -36 270 -31 224 -15 648 36 969
11 69 53 162 87 192 29 25 21 36 -18 22 -27 -9 -89 -70 -89 -87 0 -4 -20 -18
-45 -30 -25 -12 -48 -28 -52 -34 -15 -23 -60 -46 -144 -72 -46 -15 -129 -49
-184 -75 -55 -27 -129 -56 -165 -65 -194 -49 -288 -84 -374 -140 -39 -26 -87
-42 -206 -70 -85 -20 -175 -45 -200 -55 -55 -22 -79 -28 -195 -45 -230 -35
-350 -61 -516 -115 -23 -7 -76 -41 -263 -170 -65 -45 -111 -72 -216 -128 -194
-103 -287 -179 -414 -340 -60 -76 -101 -110 -178 -151 -61 -33 -84 -70 -114
-187 -22 -85 -26 -124 -29 -279 -2 -121 -8 -203 -19 -250 -16 -68 -91 -427
-162 -770 -54 -264 -69 -331 -107 -465 -60 -209 -77 -312 -84 -485 -6 -176 3
-272 42 -428 l24 -97 -24 -119 c-22 -109 -45 -252 -60 -376 -3 -27 -12 -160
-20 -295 -30 -517 -34 -556 -71 -680 -65 -222 -79 -367 -43 -472 19 -57 19
-64 5 -122 -25 -96 -23 -169 4 -203 20 -26 22 -37 20 -168 -3 -158 -2 -170 5
-163 13 13 48 126 46 151 -1 15 3 36 8 46 12 21 148 77 229 94 64 12 677 17
777 5 33 -4 105 -12 160 -18 403 -42 951 -198 1055 -300 29 -29 39 -66 21 -86
-4 -5 -14 -31 -20 -59 -13 -50 -26 -75 -42 -75 -5 0 -9 8 -9 18 0 10 -15 32
-33 50 -47 46 -237 122 -337 135 l-45 6 50 -17 c74 -26 175 -74 175 -84 0 -4
9 -8 20 -8 11 0 20 -4 20 -10 0 -5 6 -10 13 -10 7 0 13 -9 14 -21 1 -12 10
-27 20 -34 16 -12 18 -35 20 -262 1 -144 -1 -238 -6 -223 -5 14 -6 41 -4 61 3
24 1 39 -8 44 -9 6 -11 3 -6 -9 10 -26 -13 -56 -39 -50 -33 8 -41 -16 -13 -39
13 -10 24 -22 24 -26 0 -12 49 -81 58 -81 4 0 7 -6 7 -13 0 -8 8 -21 18 -30
38 -35 228 -124 282 -133 14 -3 39 -11 55 -19 17 -8 56 -21 87 -30 31 -8 60
-20 63 -25 3 -6 15 -10 26 -10 10 0 27 -4 37 -9 16 -9 87 -37 202 -80 30 -11
67 -23 83 -27 15 -3 27 -10 27 -15 0 -5 8 -9 17 -9 10 0 47 -9 83 -19 142 -42
247 -70 285 -77 22 -4 54 -13 71 -20 17 -7 78 -23 135 -34 57 -12 114 -28 126
-36 12 -8 32 -14 43 -14 12 0 19 -4 16 -9 -3 -5 15 -12 40 -16 33 -5 48 -12
51 -25 4 -15 11 -18 33 -14 20 5 33 0 48 -16 13 -14 28 -21 40 -18 12 3 23 -2
30 -13 7 -11 18 -16 27 -13 29 12 126 -6 132 -24 9 -25 24 -32 65 -32 20 0 39
-4 43 -9 3 -6 26 -13 50 -17 25 -3 48 -10 51 -15 6 -11 -41 -23 -55 -14 -16 9
-13 -11 3 -24 11 -9 20 -10 36 -1 11 6 29 8 39 5 11 -3 21 0 24 8 3 8 20 17
38 19 28 4 30 3 14 -8 -9 -7 -15 -20 -12 -28 3 -8 -1 -22 -8 -33 -17 -23 -5
-44 78 -128 52 -54 60 -58 71 -43 16 22 98 18 121 -6 11 -11 22 -13 32 -7 9 4
24 6 34 4 11 -3 22 3 28 16 12 21 61 30 61 11 0 -5 14 -10 30 -10 17 0 30 -5
30 -11 0 -7 10 -9 26 -5 14 4 32 2 39 -4 15 -12 31 3 20 19 -3 5 -1 12 3 15
12 7 54 -23 47 -35 -4 -5 -2 -9 3 -9 6 0 13 7 16 16 6 15 10 14 32 -7 22 -20
28 -22 45 -10 18 10 24 10 40 -5 10 -9 17 -21 16 -28 -1 -6 5 -11 13 -11 9 0
14 7 12 18 -3 19 26 36 37 19 3 -5 17 -12 31 -13 17 -3 30 -15 40 -36 16 -36
35 -45 25 -13 -9 29 10 25 30 -6 13 -20 19 -23 25 -13 7 10 11 10 24 0 9 -8
16 -20 16 -27 0 -18 14 -18 30 1 11 13 16 13 29 3 31 -25 62 -39 72 -32 15 9
77 -24 90 -47 8 -16 14 -18 22 -10 18 18 24 13 31 -21 6 -28 7 -30 19 -14 11
15 17 16 40 5 15 -7 27 -16 27 -22 0 -5 6 -7 14 -4 22 9 81 -11 101 -33 10
-11 22 -17 26 -14 9 5 21 -3 64 -43 13 -13 28 -23 33 -23 12 0 22 -24 22 -51
0 -10 7 -19 15 -19 9 0 12 6 9 15 -4 10 0 15 11 15 11 0 15 -5 11 -15 -6 -15
5 -20 18 -8 17 18 37 9 50 -22 11 -26 19 -32 35 -28 30 8 71 -5 71 -22 0 -7
16 -19 35 -26 19 -7 36 -20 38 -28 4 -13 5 -13 6 2 1 18 21 24 21 6 0 -19 44
-48 73 -49 20 0 30 -6 34 -19 3 -12 22 -24 51 -33 35 -11 48 -21 52 -39 6 -26
45 -38 63 -20 18 18 27 13 27 -14 0 -21 5 -25 29 -25 29 0 93 -27 99 -42 2 -5
10 -8 18 -8 7 0 23 -14 36 -30 12 -17 30 -30 39 -30 10 0 25 -10 33 -21 13
-20 13 -25 0 -51 -12 -24 -18 -27 -30 -17 -8 6 -14 22 -14 35 0 13 -4 24 -10
24 -5 0 -10 -9 -10 -20 0 -11 -8 -24 -17 -27 -10 -4 -29 -15 -42 -25 -13 -10
-34 -18 -47 -18 -15 0 -24 -6 -24 -15 0 -10 -10 -15 -30 -15 -24 0 -30 4 -30
23 l-1 22 -18 -22 c-11 -13 -29 -23 -42 -23 -12 0 -30 -7 -40 -16 -16 -14 -20
-14 -44 2 -26 17 -28 17 -40 0 -8 -10 -22 -16 -32 -15 -10 1 -44 -3 -75 -10
-33 -7 -87 -10 -126 -7 -58 4 -72 2 -89 -13 -10 -10 -41 -21 -69 -26 -27 -4
-54 -11 -61 -17 -14 -11 -115 -21 -199 -19 -47 1 -63 -2 -67 -14 -4 -9 -19
-15 -36 -15 -16 0 -32 -4 -35 -9 -6 -9 -54 -3 -61 9 -2 4 -26 3 -52 -2 -123
-24 -135 -22 -110 19 13 21 -9 23 -48 3 -27 -14 -42 -16 -51 -10 -17 15 -87
16 -92 2 -2 -7 -17 -12 -32 -12 -24 0 -31 6 -41 35 -14 38 -45 47 -72 20 -13
-13 -16 -13 -21 0 -8 21 -37 19 -43 -3 -3 -14 -12 -17 -32 -14 -16 2 -34 -2
-43 -11 -10 -11 -19 -12 -32 -5 -12 7 -24 5 -41 -6 -13 -9 -30 -16 -37 -16 -9
0 -10 2 -2 8 8 4 8 15 3 30 -8 22 -10 22 -39 7 -16 -8 -30 -12 -30 -8 0 18 46
113 55 113 6 0 21 9 35 20 14 11 40 20 58 20 18 0 41 4 50 9 9 5 35 6 57 2 37
-6 42 -4 72 31 26 32 33 36 41 23 10 -20 42 -9 42 14 1 14 3 13 15 -3 8 -10
16 -24 19 -30 3 -7 11 -4 20 8 11 13 24 17 48 14 18 -3 41 0 50 6 14 8 20 6
31 -8 14 -19 15 -19 38 3 16 15 31 20 47 16 16 -4 31 2 50 20 33 30 40 31 68
4 21 -20 22 -20 54 -1 63 39 72 102 14 102 -13 0 -24 5 -24 10 0 6 -5 10 -11
10 -5 0 -8 -4 -5 -9 3 -5 -8 -14 -26 -20 -43 -15 -61 -14 -54 4 7 18 -24 16
-48 -4 -15 -12 -20 -8 -17 12 0 4 -6 7 -14 7 -8 0 -15 5 -15 11 0 8 -4 9 -13
0 -17 -14 -27 -4 -27 25 0 12 -3 30 -6 38 -10 25 -34 0 -34 -35 0 -33 -6 -36
-32 -13 -16 16 -22 16 -75 1 -31 -9 -59 -15 -61 -12 -2 2 -7 19 -11 37 -8 41
-35 44 -39 5 -2 -16 -11 -31 -20 -34 -9 -4 -19 -10 -22 -14 -3 -4 -17 1 -30
11 -25 19 -25 19 -5 34 16 12 18 17 8 27 -10 10 -16 9 -31 -7 -10 -10 -21 -26
-24 -35 -9 -23 -56 -31 -61 -10 -3 11 -5 10 -6 -5 0 -11 -6 -25 -13 -32 -16
-16 -138 -16 -138 0 0 6 -6 4 -13 -7 -15 -19 -37 -13 -37 11 0 8 -7 14 -16 14
-8 0 -13 -4 -9 -10 6 -9 -28 -50 -42 -50 -5 0 -17 14 -28 30 -21 32 -45 40
-45 15 0 -20 -44 -20 -64 0 -8 8 -23 15 -33 15 -14 0 -15 -2 -4 -9 9 -6 10
-11 2 -15 -6 -4 -22 1 -36 10 -20 13 -25 14 -23 3 4 -21 -53 -25 -64 -5 -11
19 -88 22 -106 4 -10 -10 -17 -10 -31 -1 -10 7 -29 9 -41 6 -20 -5 -22 -3 -18
15 8 29 -7 28 -38 -3 -21 -21 -29 -23 -45 -14 -16 8 -25 7 -39 -6 -12 -11 -20
-13 -25 -6 -3 6 -1 11 4 11 6 0 11 18 11 40 0 22 -4 40 -8 40 -4 0 -8 -12 -7
-27 0 -20 -7 -31 -22 -38 -13 -5 -23 -16 -23 -24 0 -11 -12 -13 -57 -8 -54 6
-73 17 -73 45 0 19 21 14 27 -6 7 -27 73 -28 73 -1 0 18 -19 24 -56 20 -7 -1
-15 6 -18 16 -5 12 -9 14 -14 5 -6 -9 -18 -9 -46 -1 -25 7 -42 7 -48 1 -13
-13 -2 -32 18 -32 9 0 14 -10 14 -27 0 -26 0 -26 -21 -7 -16 15 -22 16 -28 5
-5 -8 -14 -10 -20 -7 -14 9 -15 36 -1 36 6 0 10 9 10 21 0 26 -24 20 -29 -7
-2 -10 -9 -28 -17 -38 -12 -18 -14 -18 -25 7 -15 32 -25 34 -34 7 -7 -22 -25
-26 -42 -9 -8 8 -13 8 -17 0 -13 -21 -26 -11 -26 19 0 20 -5 30 -15 30 -8 0
-15 -9 -15 -20 0 -11 -4 -20 -10 -20 -5 0 -10 7 -10 15 0 17 -16 20 -25 5 -3
-5 -24 -10 -45 -10 -30 0 -40 4 -45 21 -5 16 -12 19 -31 15 -20 -5 -26 -2 -34
19 -10 27 -30 34 -30 10 0 -19 -32 -36 -49 -26 -7 5 -12 11 -11 15 4 18 -8 28
-26 22 -27 -8 -84 -59 -84 -74 0 -7 -4 -12 -10 -12 -5 0 -10 9 -10 20 0 18 -7
20 -64 20 -69 0 -83 8 -67 38 8 15 5 24 -13 41 l-24 23 -8 -24 c-5 -12 -9 -34
-9 -47 0 -18 -6 -24 -27 -27 -16 -1 -28 2 -28 7 0 5 9 9 20 9 13 0 20 7 20 20
0 14 -7 20 -24 20 -30 0 -38 -20 -23 -59 14 -39 3 -50 -21 -21 -22 27 -52 21
-52 -10 0 -27 -13 -25 -46 5 -15 14 -35 25 -45 25 -9 0 -19 6 -22 13 -2 6 -7
9 -11 6 -3 -3 1 -20 10 -38 12 -25 20 -30 36 -25 16 5 19 2 16 -13 -2 -13 -13
-18 -36 -19 -18 -1 -41 -9 -51 -18 -17 -15 -19 -16 -25 -1 -10 27 -7 35 15 35
14 0 19 5 17 18 -2 9 -11 15 -19 13 -8 -2 -27 -6 -44 -9 -16 -3 -33 -10 -37
-16 -5 -6 -8 -2 -9 12 -1 12 -2 28 -3 34 -1 7 6 13 14 14 30 2 32 4 20 19 -14
17 -115 21 -125 5 -4 -6 -16 -10 -28 -9 -45 4 -67 -1 -67 -16 0 -8 4 -15 9
-15 5 0 14 7 21 15 18 22 28 18 23 -10 -3 -13 -8 -24 -12 -23 -21 2 -31 -4
-31 -22 0 -15 -7 -20 -26 -20 -23 0 -26 3 -22 25 4 18 2 22 -6 16 -6 -5 -42
-9 -80 -10 -45 0 -72 -5 -77 -13 -6 -9 -11 -2 -15 20 -6 31 -8 32 -55 32 -48
0 -49 -1 -49 -30 0 -17 5 -30 13 -31 14 -1 -22 -17 -40 -18 -9 -1 -13 13 -13
39 0 39 -1 40 -27 34 -35 -8 -37 -10 -28 -24 4 -6 16 -8 26 -5 18 6 19 5 7
-14 -7 -12 -27 -24 -45 -27 -22 -4 -33 -12 -33 -23 0 -10 -3 -20 -6 -24 -9 -9
-34 4 -34 18 0 7 -20 19 -45 26 -24 7 -42 15 -40 17 5 5 -20 32 -29 32 -3 0
-6 -7 -6 -16 0 -13 -7 -15 -30 -10 -18 3 -30 1 -30 -5 0 -6 -8 -8 -18 -5 -21
6 -141 8 -289 4 -61 -2 -106 0 -100 4 8 5 4 8 -9 8 -11 0 -31 11 -43 24 -16
17 -33 23 -64 23 -24 0 -43 5 -45 13 -3 7 -13 20 -24 29 -10 9 -41 39 -68 66
-37 37 -58 51 -82 53 -17 2 -34 5 -37 8 -3 2 -4 41 -2 85 1 51 -2 85 -10 95
-17 21 -29 17 -29 -10 0 -14 -5 -28 -10 -31 -20 -12 -38 15 -37 53 1 22 -2 35
-8 32 -6 -3 -9 -13 -8 -23 2 -14 -1 -16 -16 -7 -11 5 -23 19 -26 30 -3 11 -14
20 -23 21 -14 0 -13 2 3 8 19 8 19 8 0 19 -15 9 -17 14 -8 20 18 11 -20 70
-44 69 -14 -2 -18 5 -19 33 -1 42 -13 82 -27 92 -6 3 -14 51 -19 105 -5 54 -9
109 -11 121 -1 13 -12 32 -25 42 -12 10 -22 23 -22 28 0 6 -9 14 -20 17 -11 4
-18 10 -15 15 3 5 -2 21 -11 36 -11 16 -17 42 -15 69 1 24 -3 46 -9 50 -8 5
-8 11 0 20 14 17 -7 55 -30 52 -20 -3 -22 6 -14 48 4 26 2 41 -9 53 -9 10 -15
36 -15 65 0 26 -5 53 -10 60 -6 7 -6 35 -2 67 9 67 2 159 -15 183 -7 10 -11
26 -8 36 3 12 -4 25 -19 36 -15 11 -19 19 -10 22 15 6 16 45 1 60 -8 8 -11 50
-10 121 1 82 -2 112 -12 121 -8 6 -12 22 -9 36 2 14 1 33 -3 42 -12 29 -14
147 -3 161 6 7 11 68 11 142 0 71 3 129 6 128 3 0 13 0 21 1 13 1 13 2 0 11
-13 8 -12 10 3 10 9 0 17 5 17 10 0 19 47 63 54 51 4 -6 12 -11 17 -11 6 0 8
4 5 9 -10 16 144 24 334 17 188 -7 341 -23 485 -50 44 -8 91 -15 105 -15 l25
0 -23 10 c-32 12 -184 36 -392 60 -205 23 -566 34 -725 20 -183 -16 -297 -65
-308 -133 -2 -18 -15 -58 -27 -88 -30 -73 -34 -110 -18 -147 14 -33 113 -123
135 -123 10 0 13 -30 14 -132 2 -366 42 -815 94 -1058 38 -177 118 -526 121
-531 2 -4 29 -132 59 -285 75 -373 101 -444 203 -549 66 -68 84 -81 150 -115
115 -57 182 -60 422 -18 106 19 163 22 372 23 135 0 250 -3 254 -7 4 -4 -8
-52 -26 -105 -18 -54 -38 -118 -45 -143 -7 -25 -42 -139 -78 -255 -95 -307
-175 -587 -288 -1015 -207 -780 -318 -1373 -419 -2225 -38 -326 -54 -480 -65
-645 -3 -47 -8 -111 -11 -142 l-6 -58 4791 0 4791 0 1 48 c0 26 2 56 5 67 7
36 24 257 28 375 2 63 2 90 -1 60 -2 -30 -8 -59 -14 -64 -5 -6 -7 6 -5 32 2
23 0 58 -4 79 -6 23 -5 42 0 47 6 6 10 18 10 27 0 10 5 21 11 25 8 4 9 -3 4
-25 -4 -20 -3 -31 4 -31 16 0 13 192 -4 275 -8 38 -22 84 -30 101 -13 29 -26
135 -55 464 -6 63 -15 138 -20 165 -13 73 -28 219 -41 395 -6 85 -15 177 -20
205 -19 98 -29 356 -32 810 -2 410 -4 465 -20 505 -11 29 -24 123 -37 270 -23
250 -58 562 -94 835 -13 99 -21 183 -17 186 12 13 215 29 355 29 157 0 228
-11 449 -66 188 -48 282 -49 371 -5 34 17 71 40 82 53 l19 22 -37 -23 c-71
-43 -96 -44 -149 -10 -26 16 -51 29 -55 28 -22 -4 -37 3 -58 26 -13 14 -35 26
-49 27 -15 1 -29 8 -31 15 -6 13 -76 12 -123 -2 -16 -5 -25 0 -39 22 -10 15
-27 34 -36 41 -10 7 -18 20 -18 28 0 8 -4 13 -8 12 -4 -2 -21 11 -37 27 -56
57 -127 87 -143 60 -8 -14 -72 -26 -72 -13 0 16 -77 40 -154 49 -57 6 -88 14
-109 30 -17 12 -44 22 -62 23 -35 1 -64 25 -66 53 -1 10 -7 0 -13 -21 -12 -40
-36 -61 -36 -33 0 9 -9 19 -20 22 -11 4 -18 10 -15 15 6 10 -58 22 -79 14 -20
-8 -20 -10 4 -36 18 -20 19 -24 5 -37 -16 -16 -25 -12 -29 15 -3 22 -128 54
-134 35 -5 -14 -22 -15 -22 -1 0 18 24 37 40 33 9 -3 22 2 29 11 11 13 6 15
-38 14 -55 0 -53 3 -53 -73 0 -14 0 -28 1 -31 1 -3 15 4 31 16 17 12 40 20 52
18 20 -3 22 -8 19 -48 -1 -25 -10 -53 -18 -62 -19 -21 -7 -41 21 -34 33 9 96
-5 96 -20 0 -19 10 -18 25 3 11 15 13 15 24 -6 7 -12 11 -41 9 -64 l-3 -42
-65 3 c-43 2 -71 9 -84 20 -28 26 -145 24 -169 -3 -16 -19 -18 -19 -27 -2 -6
9 -17 17 -25 17 -7 0 -17 9 -20 20 -3 11 -11 20 -16 20 -16 0 -22 -29 -9 -45
10 -12 9 -16 -4 -21 -24 -9 -47 3 -40 21 6 14 0 15 -45 9 -43 -6 -51 -4 -51
10 0 19 -1 20 -34 2 -22 -11 -34 -11 -78 2 -29 8 -68 16 -86 17 -18 1 -35 5
-39 9 -3 3 -22 6 -41 6 -21 0 -40 7 -48 18 -13 16 -15 15 -35 -10 -24 -33 -47
-35 -81 -8 -14 10 -28 17 -31 13 -4 -3 -12 -1 -19 4 -7 6 -36 11 -64 12 -39 1
-53 -3 -58 -14 -3 -9 1 -18 9 -21 22 -9 18 -24 -5 -24 -13 0 -20 7 -20 19 0
26 -18 37 -67 44 -33 4 -43 2 -43 -9 0 -8 -10 -18 -22 -23 -18 -6 -28 -3 -44
14 -12 13 -24 30 -27 39 -9 22 -137 24 -137 2 0 -11 -13 -15 -50 -14 -52 1
-58 6 -37 27 10 10 6 17 -18 37 -16 13 -35 24 -41 24 -16 0 -29 -53 -15 -58
14 -5 14 -42 0 -42 -6 0 -13 9 -16 20 -3 12 -14 20 -25 20 -17 0 -20 -5 -16
-35 5 -45 -13 -52 -42 -13 -12 16 -24 27 -27 24 -4 -3 -11 4 -17 17 -14 27
-83 40 -73 13 4 -9 -1 -29 -11 -46 -21 -36 -51 -39 -94 -9 -16 12 -46 22 -67
23 -40 2 -91 29 -91 48 0 7 -17 9 -54 4 -39 -4 -62 -2 -82 9 -16 8 -37 15 -47
15 -9 0 -16 6 -15 13 2 8 -16 14 -57 17 -33 3 -74 13 -92 23 -18 9 -43 17 -57
17 -33 0 -42 17 -14 26 22 7 22 7 3 15 -33 13 -45 10 -45 -11 0 -26 -30 -26
-37 -1 -5 20 -39 34 -57 24 -18 -11 -78 -14 -72 -4 4 5 -4 13 -16 16 -13 4
-30 14 -39 21 -8 8 -40 18 -70 24 -32 6 -61 18 -71 30 -9 11 -25 20 -36 20
-45 0 -82 13 -88 32 -4 15 -13 19 -39 17 -21 -2 -41 3 -53 14 -11 10 -32 17
-48 15 -50 -3 -84 2 -84 12 0 6 7 10 15 10 27 0 16 19 -12 22 -25 3 -28 7 -28
43 0 39 -1 40 -35 38 -19 -1 -53 1 -75 3 l-40 4 4 48 c2 26 6 41 8 35 5 -14
71 -18 88 -5 14 10 13 57 -2 55 -6 -1 -17 4 -23 12 -7 8 -24 15 -39 15 -15 0
-21 3 -14 8 8 5 8 12 -3 26 -14 19 -14 19 -14 -1 0 -32 -24 -47 -49 -31 -12 7
-21 16 -21 20 0 5 -12 8 -26 8 -25 0 -26 2 -21 36 5 30 3 35 -10 30 -20 -8
-43 11 -43 35 0 12 -10 21 -26 25 -19 5 -22 9 -12 15 10 7 9 9 -4 9 -16 0 -18
-10 -19 -72 0 -54 -3 -67 -9 -50 -5 12 -16 22 -24 22 -11 0 -13 9 -10 35 4 30
1 35 -16 35 -17 0 -20 -7 -20 -42 0 -23 -3 -38 -7 -35 -12 12 -12 60 0 81 16
29 18 66 4 63 -18 -3 -36 -38 -37 -69 0 -29 -6 -33 -34 -22 -11 4 -14 15 -10
37 2 18 2 26 -2 20 -8 -18 -34 -16 -48 2 -7 9 -19 12 -33 9 -23 -6 -32 -24
-13 -24 16 0 11 -26 -9 -51 l-20 -24 -31 32 c-17 18 -29 37 -26 42 7 11 -33 2
-50 -10 -19 -15 -25 3 -6 18 9 8 11 11 4 8 -24 -12 -142 5 -142 20 0 18 -59
29 -110 21 -41 -6 -64 9 -39 25 11 7 9 13 -11 31 -28 26 -110 33 -117 11 -7
-20 -30 -15 -47 9 -15 21 -16 21 -16 3 -1 -18 -2 -18 -10 -4 -5 9 -29 20 -54
23 -31 5 -49 14 -60 31 -14 21 -19 22 -45 12 -24 -9 -32 -8 -46 6 -9 9 -27 17
-41 17 -14 0 -27 6 -30 14 -3 8 -20 14 -37 14 -18 1 -48 6 -67 12 -19 6 -57
13 -84 16 -27 3 -57 9 -66 14 -9 5 -30 8 -46 8 -16 0 -49 5 -73 11 -23 7 -50
10 -58 6 -9 -3 -22 0 -31 7 -8 7 -57 16 -108 19 -54 4 -100 12 -109 19 -13 11
-23 11 -49 2 -24 -9 -41 -9 -60 -2 -34 13 -49 13 -41 0 9 -15 -78 -12 -155 4
-84 18 -171 61 -163 81 3 10 -1 15 -15 15 -12 0 -32 15 -48 35 -24 33 -28 34
-39 18 -12 -15 -18 -16 -44 -6 -18 6 -33 7 -37 2 -3 -5 -32 -9 -65 -9 -68 0
-82 -14 -55 -55 14 -22 15 -25 1 -26 -19 -2 -25 -4 -50 -14 -11 -5 -33 -9 -50
-9 -31 1 -139 47 -150 64 -4 6 -11 8 -16 5 -5 -4 -9 -1 -9 4 0 6 5 11 10 11 6
0 10 15 10 33 0 68 12 107 31 107 14 0 19 7 19 25 0 14 -4 25 -9 25 -13 0 -22
43 -10 51 19 12 5 44 -21 47 -33 5 -50 20 -50 44 0 15 -4 18 -22 12 -13 -4
-26 -12 -30 -18 -4 -6 -10 3 -14 22 -4 17 -12 32 -19 32 -14 0 -34 48 -36 84
-1 19 -2 18 -9 -4 -8 -24 -8 -24 -9 -2 -1 12 6 25 14 28 22 9 18 28 -11 57
-32 33 -26 55 18 59 46 4 37 24 -10 20 -20 -1 -50 -4 -67 -5 l-29 -2 3 77 c2
70 1 77 -19 88 -42 22 -4 96 54 103 l31 4 -32 1 c-18 1 -33 7 -33 12 0 6 3 9
8 8 4 -1 16 3 28 9 11 7 34 14 50 17 16 3 34 12 40 21 14 18 25 20 22 3 -2 -8
11 -14 36 -16 56 -5 87 5 79 24 -4 11 -8 12 -13 4 -5 -7 -10 -2 -14 15 -4 16
-3 32 3 38 11 11 16 -3 11 -28 -1 -5 2 -7 6 -3 4 4 13 3 20 -3 24 -20 47 -2
40 31 -8 43 1 62 25 49 13 -7 25 -6 39 1 11 6 26 8 32 4 7 -4 8 -3 4 4 -5 8 3
12 23 12 16 0 31 -6 34 -12 3 -10 9 -10 28 0 14 7 50 14 82 15 31 2 62 8 69
15 7 7 24 12 40 12 15 0 37 4 50 9 65 26 70 28 148 41 89 16 270 17 355 2 170
-31 341 -69 366 -83 10 -5 51 -16 91 -24 40 -9 77 -20 82 -25 6 -6 26 -10 47
-10 20 0 58 -8 85 -19 27 -10 94 -26 149 -35 55 -10 114 -21 131 -27 17 -5 46
-9 65 -9 19 0 43 -7 53 -15 12 -9 42 -15 72 -15 29 0 56 -5 59 -10 4 -6 11 -8
16 -4 6 3 42 -1 82 -9 40 -9 88 -15 107 -14 80 3 455 -42 500 -60 8 -3 20 -5
26 -4 7 1 14 -5 18 -14 4 -11 20 -15 55 -15 27 0 52 -4 55 -9 3 -5 34 -12 68
-15 89 -9 197 -26 238 -36 19 -5 60 -10 90 -11 30 -1 82 -11 114 -22 33 -10
72 -17 88 -15 15 3 28 1 28 -3 0 -4 28 -10 63 -13 34 -4 85 -9 112 -12 28 -3
73 -8 100 -10 28 -3 57 -8 65 -11 35 -14 50 -13 50 4 0 15 1 15 13 -1 12 -16
34 -18 178 -22 90 -2 173 -3 184 -3 89 0 131 -4 140 -12 5 -5 95 -9 202 -9
122 0 193 -4 193 -10 0 -5 5 -10 10 -10 6 0 10 6 10 14 0 11 17 15 73 15 39 1
80 1 90 2 9 0 55 0 102 0 47 0 93 0 103 0 9 0 53 7 98 15 44 8 132 16 195 19
63 3 128 9 144 13 17 5 44 6 60 3 17 -4 86 -4 154 -1 l125 5 7 27 7 27 -46 -6
c-26 -3 -55 -10 -65 -15 -19 -10 -31 -5 -33 13 -1 5 -3 11 -4 14 -8 16 -4 33
12 57 29 43 13 63 -64 78 -29 6 -38 4 -38 -6 0 -19 -55 -18 -74 2 -9 8 -20 13
-25 10 -13 -8 -41 22 -36 37 3 7 -8 19 -24 29 -26 14 -30 23 -36 81 -5 49 -3
71 9 94 14 29 14 32 -5 49 -12 11 -16 21 -10 27 5 5 7 16 4 24 -11 29 50 113
83 113 7 0 14 6 14 13 0 19 61 62 83 59 11 -2 17 3 17 16 0 11 7 23 16 26 23
9 24 8 24 -14 0 -22 12 -25 41 -10 23 13 25 27 4 32 -13 2 -11 9 7 36 22 31
25 33 70 27 27 -3 49 -1 53 5 3 5 -1 10 -9 10 -9 0 -16 2 -16 5 0 15 38 43 65
49 34 7 67 46 39 46 -8 0 -12 5 -9 11 4 5 12 8 17 7 6 -2 24 9 40 25 24 25 28
34 22 63 -5 25 -2 35 9 40 8 3 13 13 10 24 -3 10 4 27 15 38 11 11 23 29 27
41 3 11 22 26 41 33 25 9 34 18 34 35 0 13 5 23 10 23 6 0 10 -4 10 -9 0 -5
11 -11 24 -13 23 -5 30 11 13 28 -13 14 -7 22 13 17 11 -3 20 -1 20 5 0 6 15
12 33 14 30 3 32 6 35 46 2 24 8 42 15 42 9 0 9 2 0 8 -7 5 -15 23 -17 41 -2
18 -10 37 -17 42 -11 6 -9 12 5 28 11 12 16 21 11 21 -36 0 109 83 185 105 27
8 199 79 240 100 14 6 62 31 108 54 45 23 82 38 82 34 0 -4 4 -3 8 2 4 6 18
16 30 23 22 12 26 11 56 -22 17 -20 35 -36 38 -36 13 0 -5 35 -28 56 -29 26
-30 34 -5 34 11 0 23 5 26 10 3 6 13 10 21 10 8 0 33 9 57 19 23 11 76 22 117
26 82 7 137 21 160 40 8 7 23 15 33 16 10 2 18 9 17 14 -1 11 33 23 65 23 11
0 4 -5 -15 -10 l-35 -11 34 -9 c49 -13 61 -5 63 44 l1 43 4 -37 c4 -37 5 -38
44 -38 21 0 39 5 39 11 0 5 5 7 11 3 8 -5 10 3 7 26 -5 33 9 47 37 36 11 -4
13 -11 5 -30 -7 -20 -6 -27 8 -35 15 -9 14 -10 -8 -11 -25 -1 -25 -1 -5 -17
19 -15 19 -15 -5 -9 -14 4 -34 10 -44 13 -15 5 -18 2 -13 -10 4 -11 1 -17 -9
-17 -9 0 4 -19 33 -47 66 -65 91 -155 62 -230 -12 -33 -67 -82 -91 -83 -10 0
-18 -5 -18 -10 0 -6 -3 -9 -7 -8 -13 3 -55 -12 -103 -37 -25 -12 -69 -26 -97
-30 -29 -4 -53 -12 -53 -17 0 -6 -12 -8 -30 -5 -16 4 -32 2 -35 -3 -3 -6 -16
-10 -28 -10 -27 -1 -50 -17 -66 -47 -6 -13 -18 -23 -26 -23 -7 0 -15 -3 -17
-7 -11 -26 -166 -100 -218 -106 -14 -1 -31 -8 -38 -15 -7 -6 -25 -12 -38 -12
-14 0 -49 -11 -77 -24 -29 -13 -62 -26 -74 -30 -11 -4 -27 -13 -33 -21 -7 -8
-21 -15 -32 -15 -10 0 -41 -11 -68 -25 -28 -14 -50 -22 -50 -18 0 4 -15 -17
-34 -46 -18 -30 -35 -48 -37 -42 -3 7 -29 -11 -63 -43 -32 -31 -60 -56 -63
-56 -7 0 -68 -45 -71 -53 -2 -4 -8 -5 -13 -1 -5 3 -9 -1 -9 -8 0 -8 -10 -22
-22 -32 -42 -35 -133 -121 -133 -126 0 -14 -63 -91 -82 -101 -13 -7 -23 -16
-23 -21 0 -5 -11 -20 -25 -34 -36 -36 -75 -96 -75 -116 0 -9 -6 -23 -14 -30
-20 -21 -28 -104 -17 -183 7 -49 7 -73 -1 -82 -17 -21 -4 -25 47 -11 43 12 48
11 61 -7 12 -16 14 -17 14 -2 0 19 8 21 29 8 19 -12 91 57 91 87 0 11 8 22 20
25 13 3 20 0 20 -9 0 -8 3 -14 8 -14 4 0 17 -15 30 -34 25 -37 21 -61 -17
-105 -12 -13 -21 -33 -21 -43 0 -57 -58 -102 -118 -93 -94 14 -122 14 -122 0
0 -9 6 -12 16 -8 8 3 25 1 37 -5 23 -11 59 -17 162 -27 33 -4 87 -10 119 -15
32 -5 62 -7 67 -5 4 3 9 -5 11 -17 2 -18 11 -24 36 -26 30 -3 33 -1 27 17 -5
17 -2 21 14 21 11 0 22 -3 25 -8 2 -4 66 -9 143 -11 76 -1 142 -5 147 -8 5 -4
6 -1 2 5 -5 8 4 12 28 12 19 0 57 9 84 19 26 10 59 21 72 23 18 2 26 11 30 32
3 20 16 35 39 48 18 10 40 25 48 33 8 8 21 15 29 15 8 0 14 4 14 9 0 6 38 35
84 65 46 31 99 70 117 86 19 16 41 30 49 30 9 0 46 23 82 50 37 28 70 50 75
50 16 1 121 106 128 128 6 22 5 23 -17 11 -31 -16 -80 -51 -93 -65 -5 -7 -30
-25 -54 -40 -24 -16 -56 -37 -70 -46 -14 -10 -57 -33 -96 -52 -38 -18 -94 -50
-124 -70 -29 -20 -57 -36 -62 -36 -5 0 -9 -3 -9 -7 0 -5 -26 -21 -58 -38 -31
-16 -59 -33 -62 -36 -14 -15 -122 -61 -134 -56 -8 3 -28 1 -44 -5 -38 -15
-126 13 -163 50 -39 40 -72 115 -84 192 -2 17 17 40 28 33 4 -2 11 6 16 19 7
18 35 34 114 67 58 24 136 61 172 82 37 21 69 39 70 39 2 0 6 -10 8 -22 4 -20
4 -19 6 5 1 32 5 33 33 7 23 -21 51 -29 30 -8 -19 19 -14 65 8 81 11 8 17 16
14 19 -2 3 39 27 93 53 54 26 124 60 156 76 32 16 63 29 69 29 6 0 35 20 64
44 29 24 72 48 96 54 283 74 424 91 558 68 52 -9 106 -19 119 -23 17 -4 22 -3
17 5 -4 6 -23 14 -44 17 -20 4 -53 12 -72 18 -19 6 -43 10 -52 9 -28 -1 -31
17 -4 24 16 4 27 15 31 33 4 21 12 27 37 29 18 2 34 4 36 6 2 2 0 25 -3 50 -5
32 -12 46 -23 46 -13 0 -12 3 4 21 l18 20 8 -20 c9 -26 28 -28 29 -3 0 15 1
15 8 -2 6 -15 10 -16 16 -7 6 11 9 11 16 0 6 -9 9 2 10 31 0 25 3 38 6 30 2
-8 11 -29 19 -47 8 -17 14 -43 14 -58 0 -36 22 -28 33 12 7 22 5 40 -6 64 -9
19 -19 45 -23 59 -4 13 -16 39 -28 57 -16 26 -28 33 -53 33 -17 0 -39 3 -48 7
-15 5 -15 7 4 18 l22 11 -33 42 c-18 22 -39 39 -46 37 -7 -3 -12 1 -11 8 4 30
-2 48 -18 53 -65 21 -69 24 -65 53 2 17 -3 34 -13 44 -15 16 -15 17 1 17 14 0
16 7 9 53 -5 28 -9 68 -9 87 -1 19 -5 40 -9 47 -10 16 -2 95 12 121 6 11 11
42 11 69 0 30 4 43 9 35 5 -9 10 8 14 45 4 34 2 62 -4 68 -7 7 -8 1 -3 -19 5
-22 4 -27 -5 -21 -8 5 -10 20 -6 47 5 30 3 44 -11 59 -17 18 -17 20 0 32 16
11 16 18 6 56 -6 23 -8 51 -5 61 3 11 2 28 -4 37 -6 10 -11 14 -11 8 -1 -19
-20 20 -19 40 0 18 1 17 15 -5 l15 -25 -6 25 c-13 51 -17 188 -6 194 7 5 11
-6 11 -30 0 -38 19 -197 26 -223 12 -41 10 10 -7 139 -10 80 -18 149 -19 153
0 5 -4 5 -10 2 -10 -6 -14 13 -10 49 1 14 -3 17 -16 12 -17 -7 -17 -6 0 13 17
19 17 23 -10 108 -15 48 -31 95 -35 103 -4 8 -22 52 -40 98 -17 45 -33 82 -36
82 -2 0 -1 -16 3 -36 5 -26 3 -35 -4 -30 -7 4 -14 -4 -18 -21 -3 -15 -12 -43
-20 -61 -15 -31 -18 -51 -29 -157 -2 -27 -10 -71 -16 -97 -6 -25 -9 -56 -7
-69 4 -28 -31 -40 -77 -27 -48 13 -65 9 -75 -17 -11 -28 -25 -32 -33 -11 -3 8
3 23 14 34 10 12 19 31 19 42 0 12 16 35 34 52 29 25 36 40 42 84 3 30 10 54
14 54 5 0 10 12 12 28 2 19 9 27 22 27 14 0 19 9 22 39 2 22 7 42 12 45 5 3
12 23 16 44 4 23 11 35 18 31 7 -5 9 4 4 30 -4 21 -3 36 3 36 9 0 28 79 37
155 2 22 8 60 13 85 8 38 9 41 11 15 l2 -30 9 35 c26 101 -37 394 -132 620
-22 52 -44 103 -48 114 -4 10 -8 -130 -9 -310 -2 -330 -6 -404 -23 -404 -5 0
-9 -8 -9 -19 0 -10 -7 -24 -15 -31 -8 -7 -14 -27 -14 -44 l1 -31 7 30 c4 18 9
25 14 19 9 -15 -3 -75 -13 -69 -4 3 -10 -6 -12 -20 -3 -14 -1 -25 3 -25 5 0 9
-12 8 -27 0 -16 -3 -22 -6 -15 -2 6 -10 12 -15 12 -6 0 -8 -3 -5 -7 4 -3 0
-11 -9 -17 -8 -6 -16 -21 -17 -34 0 -12 -5 -22 -10 -22 -5 0 -4 -6 2 -14 7 -9
8 -22 3 -37 -5 -13 -7 -30 -5 -36 3 -7 -1 -13 -9 -13 -8 0 -14 -13 -15 -32 -3
-35 -33 -77 -33 -45 0 24 -15 21 -32 -6 -10 -15 -13 -30 -7 -44 5 -13 4 -25
-1 -28 -6 -4 -10 -4 -10 0 0 3 -8 1 -18 -4 -10 -5 -23 -6 -30 -2 -14 8 -4 51
12 51 6 0 17 13 23 29 11 30 11 30 -31 33 -28 2 -41 8 -41 18 0 25 63 25 86 1
30 -32 45 -26 44 18 0 32 4 42 22 50 31 14 20 36 -30 56 -32 13 -38 19 -26 26
10 8 11 12 2 15 -9 4 -10 24 -6 71 4 45 3 64 -4 60 -14 -9 -21 10 -18 48 2 45
12 55 55 55 24 0 40 5 44 15 7 20 -4 75 -15 75 -5 0 -9 9 -9 20 0 11 5 20 10
20 6 0 10 -9 10 -20 0 -11 5 -20 10 -20 14 0 12 78 -2 94 -7 7 -22 11 -34 8
-12 -2 -31 1 -43 8 -19 10 -20 13 -6 26 18 18 11 34 -15 34 -11 0 -22 11 -29
30 -5 17 -17 30 -25 30 -9 0 -16 7 -16 15 0 11 16 15 67 17 66 3 68 4 70 30 2
33 -38 57 -101 60 -35 1 -36 2 -10 5 26 3 30 8 27 27 -3 13 2 28 11 35 26 22
19 41 -16 42 -18 1 -42 2 -52 3 -28 1 -30 22 -5 47 15 15 18 24 11 27 -25 8
-12 32 17 32 16 0 34 6 40 14 17 21 -13 46 -55 46 -28 0 -35 3 -32 18 3 13 12
16 36 14 18 -2 32 1 32 7 0 6 9 11 20 11 24 0 25 8 6 29 -8 9 -17 30 -20 47
-6 27 -2 36 24 63 17 17 29 35 25 41 -3 5 -1 20 6 32 9 16 9 23 0 26 -6 2 -11
20 -11 40 0 45 -16 74 -28 54 -7 -10 -15 -6 -35 14 -17 17 -27 22 -27 13 0 -8
9 -21 20 -29 26 -19 25 -32 -2 -30 -39 3 -44 1 -56 -25 -10 -22 -15 -24 -33
-14 l-21 11 24 26 c28 31 45 65 53 107 3 17 7 39 9 50 24 125 30 145 43 145
10 0 14 13 14 43 0 23 2 79 5 124 5 73 4 83 -14 92 -17 9 -18 16 -10 76 5 37
7 74 5 83 -3 10 -5 0 -6 -20 -1 -30 -5 -38 -20 -38 -10 0 -24 -7 -31 -15 -7
-8 -23 -15 -36 -15 -19 0 -24 -5 -24 -24 0 -13 -3 -26 -7 -29 -5 -2 -3 -2 4
-1 17 4 36 -23 29 -42 -3 -9 -15 -18 -26 -21 -25 -7 -25 -15 0 -31 28 -17 25
-29 -12 -52 -29 -18 -30 -20 -10 -20 17 0 22 -6 22 -24 0 -23 -3 -24 -37 -19
-61 9 -68 21 -66 105 6 165 3 213 -10 223 -22 17 -12 65 21 102 17 20 29 39
27 43 -3 4 3 7 13 6 10 0 16 5 13 14 -2 8 -8 35 -13 60 -5 25 -11 57 -14 71
-5 20 0 30 16 42 14 10 20 22 17 31 -7 18 -23 21 -32 6 -3 -5 -12 -7 -20 -3
-11 3 -15 -2 -15 -18 0 -13 -3 -34 -6 -46 -5 -18 -2 -23 12 -23 9 0 15 -3 11
-6 -11 -11 -66 7 -70 24 -3 10 -6 4 -7 -13 -2 -29 -2 -29 -9 -5 -8 28 -3 62 9
55 10 -6 20 19 20 50 0 12 6 28 14 35 15 12 10 44 -5 34 -5 -3 -9 0 -9 6 0 6
-4 8 -10 5 -9 -6 -15 16 -11 39 3 13 -30 46 -40 41 -19 -12 -19 18 0 44 27 37
26 44 -1 37 -13 -3 -17 -3 -10 0 6 3 12 14 12 24 0 10 6 21 13 24 6 3 -1 3
-18 0 -21 -4 -26 -3 -16 4 7 5 11 14 9 18 -3 5 -2 18 3 29 8 20 8 20 8 0 1
-11 10 -26 21 -33 18 -11 20 -10 20 13 0 14 -4 25 -10 25 -5 0 -10 7 -10 15 0
8 5 15 10 15 6 0 10 5 10 10 0 6 -7 10 -15 10 -8 0 -15 -4 -15 -10 0 -5 -6
-10 -14 -10 -8 0 -16 -5 -18 -11 -5 -16 -43 4 -44 24 -3 61 -4 65 -30 70 -18
3 -22 1 -15 -6 15 -15 14 -27 -3 -21 -7 3 -18 16 -24 28 -11 25 -58 40 -67 22
-3 -6 -3 3 1 19 17 94 20 125 10 136 -8 8 -7 13 1 16 30 11 -15 29 -72 29
l-60 0 -5 34 c-3 24 -12 38 -27 45 -26 11 -29 23 -10 39 7 6 10 10 8 9 -2 -2
-10 2 -17 8 -10 8 -21 7 -44 -4 -30 -15 -30 -15 -30 11 0 21 2 24 10 12 9 -13
11 -13 19 0 13 20 9 22 -44 25 -53 4 -73 15 -29 16 l29 0 -25 10 c-13 6 -20
13 -15 17 18 13 15 32 -4 32 -10 0 -32 7 -47 15 -27 14 -28 15 -6 15 27 0 127
-44 137 -60 4 -6 18 -15 32 -21 13 -5 21 -13 18 -19 -4 -6 4 -9 17 -7 18 1 24
-4 26 -23 5 -33 20 -49 31 -31 7 11 14 10 37 -4 24 -13 25 -15 7 -12 -13 3
-23 1 -23 -4 0 -5 -7 -9 -15 -9 -19 0 -20 -16 -1 -27 7 -4 16 -15 20 -23 3 -8
4 -5 2 7 -2 13 0 26 5 29 5 3 9 -8 9 -25 0 -20 -6 -31 -17 -34 -14 -4 -12 -5
5 -6 18 -1 22 4 23 32 0 26 2 28 8 12 5 -11 6 -26 4 -32 -3 -7 0 -13 6 -13 7
0 10 16 7 45 -3 27 -1 43 5 40 5 -4 9 -17 9 -30 0 -13 5 -27 10 -30 6 -4 9 -1
8 6 -2 6 3 14 10 16 6 3 12 0 12 -6 0 -6 6 -11 14 -11 8 0 27 -15 43 -34 17
-18 34 -35 40 -37 12 -5 126 -139 118 -139 -4 0 12 -19 34 -42 22 -24 41 -48
41 -55 0 -18 24 -21 37 -4 13 18 4 40 -33 80 -16 17 -22 32 -18 47 3 12 1 25
-5 28 -6 4 -11 2 -11 -3 0 -23 -18 -10 -23 17 -3 15 -26 48 -52 74 -55 58
-201 168 -224 169 -11 0 -12 2 -3 6 9 3 -2 15 -30 31 -23 15 -47 27 -51 27 -4
0 -11 5 -15 10 -12 18 -112 74 -125 71 -6 -1 -8 -1 -4 2 15 8 -31 32 -49 25
-12 -4 -15 -3 -10 6 5 8 3 12 -5 10 -31 -4 -48 2 -43 14 5 14 -44 43 -54 32
-3 -3 1 -5 8 -5 7 0 11 -2 8 -5 -11 -11 -58 7 -56 21 2 8 -20 27 -49 44 -43
25 -53 27 -53 14 0 -9 6 -14 13 -11 7 3 24 -3 36 -13 18 -13 21 -19 10 -25 -7
-5 -14 -4 -17 3 -2 7 -8 12 -14 12 -5 0 -24 6 -41 14 -71 30 -89 36 -108 36
-11 0 -17 5 -14 10 3 6 -4 10 -15 10 -15 0 -20 5 -17 13 4 10 -12 17 -58 25
-34 7 -74 12 -89 12 -15 0 -25 4 -22 8 3 5 0 9 -7 10 -10 1 -159 38 -327 82
-25 7 -59 18 -77 26 -17 8 -40 14 -52 14 -12 0 -21 5 -21 10 0 6 -6 10 -13 10
-14 0 -134 47 -392 155 -246 102 -349 143 -381 151 -16 3 -101 30 -189 59
-230 75 -296 95 -313 95 -19 0 -12 -104 23 -345 45 -313 67 -540 60 -608 -3
-23 -10 -89 -16 -147 -12 -117 -56 -286 -93 -358 -35 -68 -226 -252 -226 -218
0 3 12 18 26 33 24 25 87 143 89 168 1 6 6 28 12 50 14 53 24 200 13 189 -5
-5 -10 -42 -11 -81 -1 -45 -9 -88 -20 -114 -11 -22 -16 -45 -13 -50 3 -5 0 -9
-5 -9 -6 0 -11 -12 -11 -27 -1 -24 -2 -25 -11 -10 -11 19 -44 23 -55 6 -4 -7
-21 -9 -45 -5 -21 3 -40 2 -44 -4 -11 -18 -25 -10 -25 14 0 25 -36 56 -65 56
-9 0 -25 -9 -37 -20 -27 -25 -35 -25 -49 -2 -12 19 -59 19 -59 1 0 -5 -5 -9
-11 -9 -7 0 -9 9 -5 23 4 19 0 25 -24 34 -17 6 -30 19 -30 28 0 14 -3 15 -15
5 -8 -6 -23 -9 -35 -5 -28 9 -73 -31 -64 -57 7 -22 -9 -24 -26 -3 -9 11 -10
19 -1 28 6 8 17 30 26 50 13 32 13 37 -1 51 -18 19 -36 12 -27 -9 3 -8 0 -15
-5 -15 -6 0 -13 8 -15 18 -3 12 -5 10 -7 -8 -1 -14 -2 -32 -1 -40 1 -8 -7 -2
-18 14 -15 23 -17 34 -9 49 7 13 7 22 -1 30 -9 9 -13 6 -17 -11 -4 -12 -10
-22 -15 -22 -5 0 -9 -12 -9 -27 l0 -28 -36 38 c-19 20 -39 35 -44 32 -4 -3 -8
1 -7 8 2 57 -16 78 -27 32 -6 -24 -8 -25 -23 -10 -12 13 -13 21 -5 41 7 15 8
24 2 24 -6 0 -10 -6 -10 -12 0 -9 -4 -8 -10 2 -6 10 -8 3 -3 -22 4 -27 2 -38
-7 -38 -6 0 -10 6 -7 13 2 6 0 22 -4 35 -6 15 -4 34 5 55 9 19 15 25 15 15 1
-10 3 -18 5 -18 12 0 58 51 53 57 -11 10 13 32 29 26 16 -6 19 12 4 22 -21 13
-8 20 33 18 23 -2 36 0 30 3 -7 3 -13 14 -13 24 0 10 6 20 13 23 9 3 9 7 0 19
-7 8 -10 18 -6 21 12 12 21 7 27 -15 6 -23 7 -23 21 -4 18 24 20 67 3 84 -9 9
-8 12 5 12 9 0 21 8 26 18 6 9 11 13 11 8 0 -11 30 14 30 25 0 5 -7 9 -15 9
-8 0 -15 5 -15 10 0 6 8 10 18 8 13 -2 16 3 14 20 -2 14 3 25 14 29 16 6 15 7
-2 20 -17 12 -17 13 2 14 11 0 14 3 6 6 -10 4 -9 8 5 19 14 11 15 13 3 14 -12
0 -11 3 3 11 10 6 17 22 17 42 0 18 9 45 19 61 13 19 18 39 14 56 -3 20 0 29
12 34 12 4 15 12 10 24 -4 9 -9 37 -9 62 -1 25 -5 51 -9 58 -6 8 0 12 17 12
19 0 26 5 26 20 0 11 -4 20 -10 20 -5 0 -10 5 -10 11 0 5 4 8 9 5 15 -9 28 16
35 68 5 38 2 53 -10 67 -14 16 -14 18 5 29 17 9 19 14 11 31 -14 26 -3 42 26
36 25 -4 30 2 15 19 -6 5 -4 24 5 49 8 22 17 94 20 159 3 66 10 130 15 144 5
13 12 54 15 93 4 38 11 69 15 69 12 0 11 57 -1 65 -11 7 -2 124 11 140 6 9 4
28 -16 125 -13 58 -34 86 -85 110 -27 13 -52 21 -55 19 -2 -3 2 -89 11 -193
15 -184 15 -189 -6 -269 -12 -45 -25 -86 -31 -91 -5 -6 -9 -15 -9 -22 0 -7
-27 -59 -60 -116 -33 -56 -60 -106 -60 -110 0 -16 -200 -321 -277 -421 -28
-38 -80 -99 -115 -136 -35 -37 -85 -96 -113 -130 -27 -35 -65 -78 -82 -97 -21
-21 -33 -43 -33 -61 0 -17 -8 -33 -20 -41 -11 -7 -20 -21 -20 -32 0 -11 -4
-20 -9 -20 -14 0 -22 -31 -11 -45 7 -9 4 -19 -9 -37 l-20 -25 30 -51 c16 -29
35 -52 42 -52 8 0 7 -3 -3 -10 -9 -5 -19 -5 -27 1 -19 17 -35 1 -23 -22 6 -10
8 -19 4 -19 -4 0 5 -9 18 -20 31 -24 43 -60 21 -60 -9 0 -13 -6 -10 -15 7 -18
-37 -54 -75 -62 -15 -3 -25 -9 -22 -14 3 -5 -8 -14 -23 -21 -15 -7 -41 -26
-58 -43 -16 -16 -37 -30 -45 -30 -8 0 -16 -9 -18 -20 -2 -11 -17 -34 -34 -51
-33 -35 -34 -67 -3 -73 11 -2 29 -10 40 -17 19 -14 19 -14 -5 -14 -14 0 -39
-9 -57 -19 -31 -19 -31 -19 -36 0 -3 10 -12 19 -21 19 -17 0 -39 -34 -29 -44
3 -3 -6 -6 -21 -6 -16 0 -25 4 -21 10 3 6 -2 13 -12 17 -10 3 -25 14 -34 23
-20 20 -180 35 -260 24 -32 -4 -54 -2 -63 5 -11 9 -15 9 -18 0 -3 -8 -9 -9
-19 -4 -7 5 -23 9 -34 10 -12 0 -21 8 -23 20 -4 28 -101 81 -172 93 -30 6 -58
8 -61 6 -4 -2 -23 3 -43 11 -33 14 -36 14 -36 -1 0 -11 -6 -14 -20 -9 -11 3
-69 8 -130 9 -61 2 -113 6 -117 10 -4 3 3 15 15 26 29 27 28 40 -3 40 -16 0
-25 6 -25 15 0 8 -5 15 -11 15 -5 0 -7 5 -4 10 3 6 1 10 -5 10 -6 0 -15 11
-21 24 -6 13 -20 27 -32 30 -13 3 -18 10 -14 20 5 11 0 16 -13 16 -20 0 -25
15 -14 45 5 12 9 13 14 5 5 -8 9 -7 13 5 8 20 -16 30 -39 17 -14 -8 -22 -4
-38 16 -12 15 -16 27 -10 29 6 2 20 10 30 19 14 10 15 14 4 12 -20 -4 -21 73
-1 80 10 3 12 0 8 -12 -4 -9 -3 -16 2 -16 11 0 71 -98 71 -115 0 -8 9 -19 20
-25 11 -6 20 -17 20 -25 0 -8 3 -15 8 -15 8 0 41 -31 100 -95 45 -48 130 -105
148 -98 9 3 10 11 3 30 -5 14 -7 33 -4 43 6 19 -21 90 -34 90 -5 0 -12 8 -15
18 -4 9 -16 33 -26 52 -11 19 -20 47 -20 63 0 15 -4 27 -10 27 -18 0 -11 46
10 65 22 20 26 67 11 119 -5 17 -17 58 -26 91 -10 33 -25 75 -34 93 -12 25
-13 36 -4 51 9 15 8 22 -7 39 -13 13 -15 23 -8 30 12 12 1 35 -13 27 -5 -4 -9
0 -9 8 0 8 -16 25 -35 38 -19 13 -35 32 -35 41 0 9 -5 20 -10 23 -6 4 -8 10
-6 14 10 15 -12 34 -30 27 -18 -7 -18 -8 0 -22 19 -13 19 -14 -6 -14 -18 0
-29 7 -33 20 -3 11 -13 20 -21 20 -16 0 -19 26 -4 35 18 11 10 43 -16 64 -15
12 -22 21 -15 21 6 0 11 7 11 15 0 8 7 15 15 15 8 0 15 9 15 20 0 32 -38 26
-43 -7 -4 -27 -4 -27 -12 -5 -5 16 -11 20 -20 12 -9 -7 -19 1 -39 31 -28 41
-29 62 -2 40 12 -10 17 -8 26 9 9 18 7 24 -20 46 -36 31 -37 38 -7 52 18 9 19
11 4 11 -10 1 -17 7 -16 14 4 34 -2 59 -14 54 -9 -3 -11 13 -8 72 3 59 8 79
22 92 17 15 18 18 3 30 -14 12 -14 14 2 26 24 17 9 43 -32 56 -39 13 -38 12
-24 47 9 21 19 30 35 30 13 0 25 -6 28 -12 4 -10 7 -10 18 0 7 6 26 12 42 12
36 0 34 28 -3 47 -24 12 -23 13 16 13 33 0 43 4 47 20 4 14 -2 23 -21 33 -22
10 -26 18 -24 44 3 25 -1 33 -18 38 -16 5 -20 13 -18 33 2 22 9 28 36 30 25 3
32 8 30 20 -4 22 -48 29 -48 9 0 -12 -4 -13 -23 -4 -17 8 -23 19 -23 43 0 32
1 32 46 33 25 0 62 -2 83 -5 32 -5 36 -8 25 -21 -11 -13 -7 -15 27 -13 71 5
93 1 98 -17 4 -14 5 -13 6 4 0 12 -11 36 -26 54 -21 25 -24 31 -10 26 10 -4
23 -7 28 -7 5 0 9 -11 9 -25 0 -18 7 -28 27 -36 15 -6 30 -6 35 -1 13 13 58 2
58 -14 0 -17 36 -19 43 -1 4 9 8 9 15 -1 5 -8 20 -13 33 -11 42 5 88 -11 94
-32 5 -15 14 -20 35 -17 29 3 64 -18 54 -33 -3 -5 -16 -9 -30 -9 -15 0 -24 -6
-24 -15 0 -20 28 -31 42 -17 8 8 22 5 49 -9 21 -10 41 -19 44 -19 12 0 4 31
-10 36 -8 4 -12 10 -9 15 9 15 21 10 27 -13 6 -20 7 -20 31 -5 22 15 25 15 37
1 11 -14 14 -12 26 10 12 22 20 26 51 24 20 -1 43 0 51 3 8 2 20 -6 26 -19 7
-13 14 -23 16 -22 9 3 58 -20 64 -29 10 -18 34 -13 110 24 77 37 89 47 98 84
7 29 -8 51 -33 51 -10 0 -20 7 -24 15 -3 8 -12 15 -21 15 -8 0 -15 4 -15 9 0
5 -11 19 -25 32 -32 31 -31 39 3 39 15 0 32 4 37 9 6 5 48 14 94 20 46 6 91
17 99 23 13 11 14 11 8 0 -6 -11 -4 -11 10 -3 11 7 62 18 114 25 106 16 100
14 194 44 37 12 78 31 90 42 11 11 30 26 41 34 19 14 19 15 1 22 -10 4 -27 2
-37 -5 -14 -8 -19 -8 -19 0 0 7 -11 9 -32 5 -40 -8 -37 -8 -115 -6 -35 1 -65
6 -68 11 -4 5 -26 9 -51 9 -24 0 -44 5 -44 10 0 6 7 10 15 10 8 0 15 4 15 9 0
10 -49 21 -95 21 -25 0 -32 4 -31 17 1 15 -8 18 -60 18 -34 1 -68 6 -76 13 -8
6 -24 8 -37 5 -12 -3 -32 -1 -44 5 -12 6 -39 13 -59 17 -35 5 -36 7 -31 40 l6
35 -56 0 c-31 0 -59 5 -62 10 -16 26 -86 60 -109 54 l-25 -6 6 84 c3 45 8 86
12 91 4 4 27 11 52 16 24 5 34 9 23 10 -25 1 -38 35 -19 51 9 8 14 7 18 -4 4
-11 19 -13 69 -9 35 3 66 11 70 17 4 6 11 11 15 12 21 2 63 25 63 34 0 5 23
10 50 10 36 0 50 4 50 14 0 8 7 17 16 20 8 3 13 10 10 15 -3 5 2 12 11 15 9 4
19 2 23 -4 9 -15 100 -25 100 -11 0 22 31 10 41 -16 9 -24 12 -26 20 -12 7 14
16 15 54 7 25 -5 54 -6 63 -2 9 4 20 6 25 6 11 -3 8 16 -4 24 -6 3 -9 20 -7
36 4 26 1 32 -22 40 -21 7 -27 15 -25 33 2 13 5 28 8 32 3 5 -3 14 -14 21 -11
7 -19 8 -19 2 0 -5 -13 -10 -30 -10 -16 0 -30 4 -30 9 0 12 -70 20 -76 9 -3
-5 -12 -4 -20 3 -7 6 -12 14 -10 18 3 4 -4 8 -15 8 -10 1 -19 -3 -19 -10 0 -8
-3 -8 -12 1 -8 8 -8 15 2 27 8 10 13 40 12 79 -1 74 11 92 51 77 41 -16 137
-12 144 6 3 8 13 13 24 10 22 -6 128 18 142 32 14 14 97 14 97 1 0 -5 -9 -10
-19 -10 -26 0 -34 -15 -26 -48 5 -20 8 -23 16 -11 6 9 9 10 9 2 0 -7 5 -13 11
-13 5 0 8 4 4 9 -6 11 56 43 86 45 11 1 23 6 27 13 9 15 71 25 137 23 49 -1
49 -1 31 19 -10 11 -16 27 -13 35 9 22 -71 85 -92 72 -5 -3 -11 0 -14 7 -3 9
-27 14 -69 16 -55 2 -215 45 -252 69 -18 11 -36 11 -36 1 0 -6 -4 -7 -10 -4
-5 3 -10 -1 -10 -9 0 -27 -21 -28 -45 -2 -21 23 -29 25 -69 20 -29 -4 -46 -3
-46 3 0 6 -11 13 -25 15 -17 4 -25 1 -25 -8 0 -22 -41 -17 -47 6 -3 11 -12 21
-19 21 -23 2 -28 4 -41 12 -6 4 -18 4 -26 1 -8 -3 -34 0 -57 6 -33 9 -46 8
-63 -3 -12 -7 -56 -19 -97 -26 -41 -7 -86 -17 -100 -22 -14 -5 -34 -9 -45 -8
-11 0 -42 -5 -70 -11 -82 -17 -102 -18 -139 0 -27 12 -50 14 -98 9 -35 -3 -68
-2 -75 3 -15 12 -33 2 -33 -19 0 -14 -3 -14 -25 1 -32 21 -55 20 -56 -1 0 -13
-3 -11 -10 7 -6 13 -9 36 -7 50 4 37 -9 52 -33 40 -10 -6 -19 -18 -19 -26 0
-9 -7 -14 -17 -12 -10 2 -18 10 -18 18 0 8 -10 15 -22 16 -44 2 -103 59 -88
84 3 5 -1 20 -10 34 -10 15 -12 25 -5 28 13 4 -10 68 -25 68 -5 0 -11 12 -11
26 -2 31 -11 41 -25 27 -8 -8 -8 -13 0 -17 16 -10 13 -23 -4 -23 -8 0 -15 7
-16 16 0 12 -3 11 -9 -4 -6 -16 -9 -17 -14 -5 -7 19 -10 55 -8 98 2 30 4 32
37 32 19 0 35 5 35 10 0 6 -4 10 -8 10 -5 0 -17 19 -27 42 -17 40 -19 41 -28
20 -12 -27 -53 -26 -78 1 -9 9 -21 17 -28 17 -15 0 -14 15 2 32 13 14 13 39 2
76 -5 16 -18 24 -45 28 -22 4 -47 16 -59 30 -22 26 -27 39 -11 29 6 -3 10 -1
10 4 0 13 -17 15 -23 4z m80 -165 c-3 -8 -6 -5 -6 6 -1 11 2 17 5 13 3 -3 4
-12 1 -19z m-18 -27 c17 -11 6 -31 -19 -31 -21 0 -35 26 -17 34 18 7 21 7 36
-3z m147 -85 c16 5 16 4 4 -5 -26 -19 -50 -13 -50 12 1 20 2 21 14 4 8 -11 20
-15 32 -11z m-167 -321 c16 5 20 3 15 -9 -3 -9 -17 -16 -30 -16 -18 0 -24 5
-24 23 0 16 3 18 9 8 5 -8 16 -11 30 -6z m45 -121 c12 -32 5 -43 -31 -53 -51
-14 -53 -14 -53 9 0 17 7 20 43 22 l42 1 -42 4 c-29 3 -43 9 -43 19 0 21 76
19 84 -2z m1265 -313 c25 -14 101 -21 101 -10 0 13 19 11 33 -3 16 -17 22
-118 8 -118 -6 0 -11 8 -11 18 0 14 -2 15 -10 2 -9 -14 -11 -13 -14 10 0 5 -6
14 -12 20 -9 9 -13 5 -17 -12 -9 -34 -47 -33 -48 2 -1 22 -2 22 -7 5 -8 -22
-37 -32 -47 -15 -3 5 -14 10 -25 10 -26 0 -31 24 -14 65 14 36 31 42 63 26z
m-632 -53 c-2 -13 -4 -5 -4 17 -1 22 1 32 4 23 2 -10 2 -28 0 -40z m526 18 c3
-8 3 -17 0 -20 -9 -9 -34 15 -27 25 8 13 21 11 27 -5z m-422 -40 c22 -5 25
-10 21 -31 -2 -14 -9 -25 -16 -26 -6 0 -1 -4 12 -9 18 -8 22 -17 22 -49 0 -22
-5 -43 -11 -47 -6 -4 -32 16 -59 45 -36 39 -47 58 -45 80 3 37 11 50 33 46 9
-2 29 -6 43 -9z m714 -164 c-3 -3 -11 0 -18 7 -9 10 -8 11 6 5 10 -3 15 -9 12
-12z m-515 -302 c0 -5 -4 -10 -9 -10 -6 0 -13 5 -16 10 -3 6 1 10 9 10 9 0 16
-4 16 -10z m-950 -555 c7 -9 8 -15 2 -15 -5 0 -12 7 -16 15 -3 8 -4 15 -2 15
2 0 9 -7 16 -15z m-44 -89 c-8 -42 -17 -80 -21 -84 -6 -6 -4 9 11 103 7 42 15
67 19 63 2 -2 -2 -39 -9 -82z m37 44 c3 -11 1 -20 -4 -20 -5 0 -9 9 -9 20 0
11 2 20 4 20 2 0 6 -9 9 -20z m-13 -110 c0 -5 -5 -10 -11 -10 -5 0 -7 5 -4 10
3 6 8 10 11 10 2 0 4 -4 4 -10z m70 -90 c0 -5 -2 -10 -4 -10 -3 0 -8 5 -11 10
-3 6 -1 10 4 10 6 0 11 -4 11 -10z m16 -46 c-3 -9 -6 -20 -6 -25 0 -5 -4 -9
-10 -9 -5 0 -10 11 -10 25 0 16 6 25 16 25 11 0 14 -5 10 -16z m35 -100 c6 -8
4 -14 -5 -17 -9 -4 -18 -2 -21 3 -4 6 -2 10 3 10 5 0 8 12 6 28 -2 16 -1 19 2
7 4 -11 10 -25 15 -31z m-37 -76 c14 -23 -9 -48 -45 -48 -36 0 -39 24 -7 52
24 21 37 20 52 -4z m-49 -98 c3 -5 1 -10 -4 -10 -6 0 -11 5 -11 10 0 6 2 10 4
10 3 0 8 -4 11 -10z m0 -80 c-5 -8 -11 -8 -17 -2 -6 6 -7 16 -3 22 5 8 11 8
17 2 6 -6 7 -16 3 -22z m2699 -295 c3 -8 1 -15 -4 -15 -6 0 -10 7 -10 15 0 8
2 15 4 15 2 0 6 -7 10 -15z m750 -154 c11 -4 15 -10 10 -13 -5 -4 -18 0 -29 8
-20 15 -12 17 19 5z m185 -102 c20 -6 44 -15 53 -20 10 -5 25 -9 33 -9 8 0 15
-4 15 -9 0 -5 12 -14 28 -19 26 -10 25 -10 -15 -11 -33 -1 -43 3 -48 19 -4 11
-9 19 -13 16 -4 -2 -18 1 -32 7 -14 6 -41 16 -60 23 -45 15 -10 18 39 3z m236
-50 c4 -6 -2 -13 -13 -16 -25 -6 -18 -33 8 -33 11 0 22 -5 25 -11 13 -19 -4
-22 -39 -5 -19 9 -41 16 -50 16 -22 0 -20 20 2 20 25 1 57 26 40 33 -9 4 -7 6
4 6 9 1 20 -4 23 -10z m-3925 -39 c0 -4 -7 -10 -15 -14 -10 -4 -15 1 -15 14 0
13 5 18 15 14 8 -4 15 -10 15 -14z m4074 -4 c21 -9 36 -19 34 -22 -7 -6 -88
30 -88 39 0 5 3 7 8 5 4 -2 24 -12 46 -22z m-19 -26 c3 -6 -1 -7 -9 -4 -18 7
-21 14 -7 14 6 0 13 -4 16 -10z m-4036 -52 c-8 -14 -14 -18 -17 -10 -4 13 17
46 25 38 3 -2 -1 -15 -8 -28z m4201 17 c7 -9 10 -19 6 -22 -4 -4 -10 -3 -14 3
-4 6 -20 16 -37 22 l-30 10 31 1 c17 1 37 -6 44 -14z m-4141 -100 c2 -40 -27
8 -33 55 l-5 45 19 -40 c10 -22 19 -49 19 -60z m4245 66 c23 -10 82 -36 131
-57 50 -21 92 -42 95 -45 3 -4 26 -10 52 -14 44 -7 157 -54 130 -55 -19 0
-145 32 -157 40 -5 4 -23 10 -40 14 -16 4 -37 13 -45 20 -8 7 -39 21 -67 32
-29 10 -53 22 -53 26 0 4 -9 8 -19 8 -11 0 -27 7 -36 17 -14 14 -18 14 -26 2
-6 -10 -9 -11 -9 -1 0 7 -10 17 -22 22 l-23 9 24 0 c14 1 43 -7 65 -18z
m-4357 -33 c-3 -7 -5 -2 -5 12 0 14 2 19 5 13 2 -7 2 -19 0 -25z m2640 -90
c-3 -8 -6 -5 -6 6 -1 11 2 17 5 13 3 -3 4 -12 1 -19z m-2497 -18 c0 -11 -4
-20 -10 -20 -5 0 -10 9 -10 20 0 11 5 20 10 20 6 0 10 -9 10 -20z m4677 -36
c-3 -3 -12 -4 -19 -1 -8 3 -5 6 6 6 11 1 17 -2 13 -5z m-4670 -26 c-3 -8 -6
-5 -6 6 -1 11 2 17 5 13 3 -3 4 -12 1 -19z m4546 6 c44 -7 60 -24 23 -24 -14
0 -28 5 -31 10 -3 6 -17 10 -30 10 -13 0 -27 5 -31 11 -4 7 0 9 12 6 11 -3 36
-9 57 -13z m534 -76 c29 -7 53 -15 53 -19 0 -6 -121 19 -129 27 -8 7 22 4 76
-8z m-5037 -14 c0 -8 -5 -12 -10 -9 -6 4 -8 11 -5 16 9 14 15 11 15 -7z m4830
6 c0 -5 -4 -10 -10 -10 -5 0 -10 5 -10 10 0 6 5 10 10 10 6 0 10 -4 10 -10z
m-4849 -85 c5 4 9 -18 9 -48 0 -39 -4 -56 -15 -60 -20 -8 -28 9 -21 46 3 18 2
39 -4 47 -6 9 -5 19 3 29 10 12 12 12 15 -3 2 -9 8 -14 13 -11z m5185 -4 c5
-5 18 -11 29 -14 20 -5 19 -5 -1 -6 -11 0 -29 6 -40 14 -10 8 -14 15 -8 15 5
0 14 -4 20 -9z m-5100 -102 c9 -22 14 -42 10 -46 -11 -11 -28 14 -28 41 0 14
-4 26 -9 26 -5 0 -9 12 -9 27 0 29 -15 22 -23 -12 -3 -11 -5 -3 -6 18 0 21 3
36 8 32 5 -3 13 0 17 7 5 8 11 1 15 -21 4 -18 15 -51 25 -72z m2311 49 c-3 -8
-6 -5 -6 6 -1 11 2 17 5 13 3 -3 4 -12 1 -19z m2933 0 c17 -5 11 -6 -20 -2
-25 3 -49 10 -55 15 -10 11 22 5 75 -13z m98 -44 c20 -9 31 -18 24 -21 -7 -3
-23 2 -36 10 -12 8 -33 17 -47 20 -23 4 -23 4 -1 6 12 0 39 -6 60 -15z m-5385
-30 c-6 -16 -25 -14 -30 2 -2 5 6 10 16 11 14 1 18 -3 14 -13z m2204 -176 c-3
-8 -6 -5 -6 6 -1 11 2 17 5 13 3 -3 4 -12 1 -19z m-153 -206 c3 -5 -4 -16 -15
-25 -18 -16 -19 -16 -19 1 0 28 22 43 34 24z m-54 -104 c0 -5 -7 -8 -15 -8
-15 0 -20 21 -8 33 7 7 23 -11 23 -25z m-1830 12 c0 -5 -7 -10 -15 -10 -8 0
-15 5 -15 10 0 6 7 10 15 10 8 0 15 -4 15 -10z m1689 -12 l8 -23 7 23 c7 21 9
21 37 7 16 -9 29 -21 29 -28 0 -8 3 -8 9 2 7 11 10 9 16 -8 4 -13 5 -24 3 -25
-12 -8 -201 -33 -217 -29 -33 8 -25 31 19 53 23 12 43 27 47 35 8 22 33 18 42
-7z m209 -31 c18 2 22 -2 22 -25 0 -20 -3 -23 -10 -12 -6 9 -23 14 -49 13 -43
-2 -55 11 -21 22 11 4 20 16 21 28 1 20 2 20 8 -3 5 -18 14 -24 29 -23z m-395
8 c11 -5 12 -14 4 -50 -6 -25 -7 -48 -2 -52 4 -5 10 -2 12 5 6 16 28 15 42 -2
9 -11 8 -15 -6 -21 -39 -17 -73 -15 -85 4 -6 10 -17 17 -23 15 -6 -3 -22 7
-35 22 -17 18 -21 28 -12 31 6 3 12 10 12 17 0 30 51 46 93 31z m477 -31 c0
-8 -9 -14 -20 -14 -22 0 -23 1 -14 24 7 18 34 10 34 -10z m44 15 c-4 -8 0 -9
15 -4 12 4 21 2 21 -4 0 -6 -6 -11 -14 -11 -8 0 -21 -3 -30 -6 -10 -4 -16 -1
-16 9 0 13 9 21 28 26 2 1 0 -4 -4 -10z m183 5 c-3 -3 -12 -4 -19 -1 -8 3 -5
6 6 6 11 1 17 -2 13 -5z m-1867 -14 c0 -5 -4 -10 -10 -10 -5 0 -10 5 -10 10 0
6 5 10 10 10 6 0 10 -4 10 -10z m1746 -37 c-10 -10 -19 5 -10 18 6 11 8 11 12
0 2 -7 1 -15 -2 -18z m224 7 c0 -5 -9 -10 -19 -10 -11 0 -23 5 -26 10 -4 6 5
10 19 10 14 0 26 -4 26 -10z m-142 -9 c19 -12 -9 -22 -39 -14 -22 6 -22 7 -3
14 25 10 27 10 42 0z m3559 -13 c-3 -8 -6 -5 -6 6 -1 11 2 17 5 13 3 -3 4 -12
1 -19z m-4416 -11 c-13 -13 -26 -3 -16 12 3 6 11 8 17 5 6 -4 6 -10 -1 -17z
m1028 -12 c-6 -6 -13 -5 -18 4 -7 11 -10 9 -16 -8 -7 -23 -21 -26 -45 -11 -12
8 -12 10 -1 10 11 0 11 3 0 17 -8 9 -9 14 -4 11 6 -4 26 -3 45 1 36 8 58 -5
39 -24z m-3290 -20 c0 -5 -4 -3 -9 5 -5 8 -9 22 -9 30 0 16 17 -16 18 -35z
m-3214 5 c3 -5 1 -10 -4 -10 -6 0 -11 5 -11 10 0 6 2 10 4 10 3 0 8 -4 11 -10z
m3260 -20 c8 -13 -5 -13 -25 0 -13 8 -13 10 2 10 9 0 20 -4 23 -10z m3286 -12
c15 14 29 16 29 3 0 -18 -40 -23 -78 -10 -35 12 -36 13 -12 19 17 4 29 1 37
-9 9 -13 14 -14 24 -3z m177 -8 c-2 -30 -12 -38 -23 -20 -6 9 11 50 21 50 2 0
3 -13 2 -30z m-6690 8 c7 -7 11 -21 11 -32 -1 -17 -2 -18 -6 -3 -2 9 -8 17
-13 17 -4 0 -10 7 -14 15 -7 18 5 20 22 3z m6907 -28 c-3 -5 -12 -10 -18 -10
-7 0 -6 4 3 10 19 12 23 12 15 0z m1710 -91 c-4 -10 -12 -18 -18 -16 -20 4
-27 35 -15 68 l11 31 14 -32 c7 -18 11 -41 8 -51z m1275 66 c0 -10 -10 -15
-32 -14 -22 1 -26 3 -13 6 11 3 24 9 30 14 13 12 15 11 15 -6z m-3225 -23 c1
-17 -2 -21 -14 -16 -9 3 -24 9 -33 11 -25 7 -23 27 2 20 12 -3 18 -1 14 5 -4
6 1 8 11 6 11 -2 19 -13 20 -26z m150 18 c3 -5 -1 -10 -9 -10 -9 0 -16 5 -16
10 0 6 4 10 9 10 6 0 13 -4 16 -10z m-118 -35 c0 -8 -4 -12 -9 -9 -5 3 -6 10
-3 15 9 13 12 11 12 -6z m3127 -11 c-10 -8 -34 -28 -51 -46 -18 -18 -33 -27
-33 -20 0 7 10 20 22 30 12 9 31 26 42 38 12 11 25 18 30 16 5 -3 0 -11 -10
-18z m83 -9 c-7 -16 -37 -21 -37 -5 0 10 32 31 39 25 2 -2 1 -11 -2 -20z
m-4657 -1 c0 -17 -22 -14 -28 4 -2 7 3 12 12 12 9 0 16 -7 16 -16z m3353 -49
c4 -8 3 -16 -1 -19 -13 -8 -35 11 -28 23 10 15 23 14 29 -4z m1247 10 c0 -2
-9 -9 -20 -15 -16 -9 -18 -8 -14 5 5 13 34 22 34 10z m-1267 -112 c-9 -103
-18 -112 -18 -17 0 59 4 84 12 84 9 0 11 -18 6 -67z m1109 35 c-7 -7 -12 -8
-12 -2 0 14 12 26 19 19 2 -3 -1 -11 -7 -17z m-26 -35 c-10 -10 -19 5 -10 18
6 11 8 11 12 0 2 -7 1 -15 -2 -18z m44 -23 c0 -5 -5 -10 -11 -10 -5 0 -7 5 -4
10 3 6 8 10 11 10 2 0 4 -4 4 -10z m-1129 -166 c-6 -50 -9 -58 -10 -29 -1 45
11 125 16 109 2 -5 -1 -41 -6 -80z m1423 -13 c3 -5 0 -14 -7 -19 -10 -8 -13
-6 -14 9 -2 19 11 26 21 10z m-14 -221 c0 -5 -4 -10 -10 -10 -5 0 -10 5 -10
10 0 6 5 10 10 10 6 0 10 -4 10 -10z m-1400 -114 c0 -3 -4 -8 -10 -11 -5 -3
-10 -1 -10 4 0 6 5 11 10 11 6 0 10 -2 10 -4z m1380 -270 c0 -7 -6 -19 -13
-25 -11 -8 -13 -6 -11 12 3 28 2 27 14 27 6 0 10 -6 10 -14z m100 -26 c0 -5
-2 -10 -4 -10 -3 0 -8 5 -11 10 -3 6 -1 10 4 10 6 0 11 -4 11 -10z m-30 -50
c0 -5 -5 -10 -11 -10 -5 0 -7 5 -4 10 3 6 8 10 11 10 2 0 4 -4 4 -10z m-5107
-50 c-3 -12 -8 -19 -11 -16 -5 6 5 36 12 36 2 0 2 -9 -1 -20z m374 -57 c-2
-16 -4 -5 -4 22 0 28 2 40 4 28 2 -13 2 -35 0 -50z m-407 22 c0 -14 -9 -35
-20 -47 -18 -20 -18 -23 -4 -39 9 -10 14 -29 12 -44 -3 -26 -1 -27 54 -31 52
-3 59 -1 78 23 24 31 20 53 -22 106 -20 26 -27 42 -20 49 16 16 47 5 48 -17 1
-11 7 -31 12 -45 9 -22 11 -22 12 -5 1 20 2 20 9 0 8 -20 -3 -95 -18 -122 -6
-12 -23 -16 -60 -16 -28 1 -49 -3 -46 -7 3 -5 21 -6 41 -4 22 3 33 1 29 -6
-11 -17 -88 -11 -122 10 -36 22 -49 63 -40 136 7 64 57 116 57 59z m-80 -9 c0
-2 -7 -17 -15 -32 -16 -30 -19 -25 -9 14 5 18 24 33 24 18z m440 -26 c0 -5 -4
-10 -10 -10 -5 0 -10 5 -10 10 0 6 5 10 10 10 6 0 10 -4 10 -10z m-329 -53
c-10 -9 -11 -8 -5 6 3 10 9 15 12 12 3 -3 0 -11 -7 -18z m62 6 c-7 -2 -19 -2
-25 0 -7 3 -2 5 12 5 14 0 19 -2 13 -5z m-326 -35 c-3 -8 -6 -5 -6 6 -1 11 2
17 5 13 3 -3 4 -12 1 -19z m620 -50 c-3 -8 -6 -5 -6 6 -1 11 2 17 5 13 3 -3 4
-12 1 -19z m-453 -78 c-8 -7 -24 24 -19 38 2 6 -1 12 -8 12 -7 0 -6 4 3 10 12
7 16 3 22 -23 3 -17 4 -34 2 -37z m5473 -52 c-3 -8 -6 -5 -6 6 -1 11 2 17 5
13 3 -3 4 -12 1 -19z m-10007 -364 c0 -2 -9 -4 -20 -4 -11 0 -20 4 -20 9 0 5
9 7 20 4 11 -3 20 -7 20 -9z m70 -135 c0 -5 -7 -9 -15 -9 -9 0 -15 9 -15 21 0
18 2 19 15 9 8 -7 15 -16 15 -21z m46 -74 c4 -14 4 -29 0 -32 -3 -4 -6 4 -6
16 0 12 -4 19 -10 16 -5 -3 -10 1 -10 9 0 26 19 18 26 -9z m38 -67 c3 -15 15
-30 26 -33 14 -4 20 -15 20 -35 0 -22 -4 -28 -15 -24 -8 4 -18 17 -21 30 -3
13 -12 28 -18 33 -8 6 -11 24 -8 43 3 18 6 29 8 23 1 -5 5 -22 8 -37z m76
-129 c0 -6 10 -19 23 -29 12 -10 19 -22 14 -26 -7 -7 -27 13 -48 49 -6 11 -6
17 1 17 5 0 10 -5 10 -11z m9821 -22 c-13 -13 -26 -3 -16 12 3 6 11 8 17 5 6
-4 6 -10 -1 -17z m-73 -34 c-4 -22 -22 -20 -26 1 -2 10 3 16 13 16 10 0 15 -7
13 -17z m-9638 -94 c0 -5 -4 -9 -10 -9 -5 0 -10 7 -10 16 0 8 5 12 10 9 6 -3
10 -10 10 -16z m6257 6 c9 -3 7 -19 -7 -61 -26 -75 -25 -82 7 -44 26 32 28 32
95 28 38 -3 71 -8 75 -11 3 -4 -10 -56 -31 -115 -20 -60 -36 -111 -36 -114 0
-2 15 -2 33 -1 48 5 62 -9 61 -63 -1 -50 -13 -64 -54 -64 -38 0 -70 27 -70 58
0 27 -1 27 -70 27 -84 0 -97 10 -80 57 22 60 29 88 21 84 -4 -3 -18 -37 -30
-77 -21 -64 -27 -72 -59 -86 -25 -10 -51 -13 -89 -8 -58 7 -62 15 -38 61 8 16
15 38 14 49 0 11 -3 14 -6 7 -9 -23 -61 -42 -116 -42 -29 0 -56 2 -59 5 -5 6
22 129 42 190 6 19 24 48 40 65 26 27 33 30 93 30 36 0 69 -5 72 -11 5 -6 13
-2 22 11 8 12 25 25 37 30 19 8 101 4 133 -5z m239 -205 c8 0 14 -7 14 -15 0
-8 -8 -15 -17 -15 -14 0 -15 -2 -4 -12 11 -10 14 -10 18 0 3 6 13 12 24 12 10
0 19 7 19 15 0 8 7 15 15 15 8 0 15 -5 15 -11 0 -27 34 -42 103 -46 40 -1 78
-5 85 -8 7 -2 15 2 18 10 8 20 34 19 34 0 0 -22 17 -18 23 6 3 12 10 18 17 14
6 -4 8 -15 5 -26 -5 -16 -1 -19 24 -19 16 0 33 -5 36 -10 4 -6 15 -8 26 -5 10
4 28 3 40 0 17 -6 20 -14 17 -48 -2 -31 -8 -43 -21 -45 -15 -3 -17 1 -12 25 5
25 4 25 -4 6 -11 -24 -18 -24 -136 -6 -45 7 -50 11 -56 38 l-7 30 -1 -27 c-1
-27 -3 -28 -59 -28 -32 0 -61 3 -65 6 -3 3 -29 8 -59 10 -29 2 -73 7 -98 12
l-45 7 -3 49 c-4 59 3 80 24 72 9 -3 22 -6 30 -6z m-2181 -44 c49 -49 63 -103
41 -161 -22 -56 -64 -88 -116 -87 -50 1 -85 24 -115 77 -31 52 -31 79 -2 135
16 32 31 47 57 56 63 22 97 17 135 -20z m-4170 4 c3 -5 1 -10 -4 -10 -6 0 -11
5 -11 10 0 6 2 10 4 10 3 0 8 -4 11 -10z m9525 -60 c0 -5 -9 -10 -19 -10 -11
0 -23 5 -26 10 -4 6 5 10 19 10 14 0 26 -4 26 -10z m140 0 c0 -5 -4 -10 -10
-10 -5 0 -10 5 -10 10 0 6 5 10 10 10 6 0 10 -4 10 -10z m-110 -101 c0 -5 -7
-9 -15 -9 -8 0 -15 7 -15 15 0 9 6 12 15 9 8 -4 15 -10 15 -15z m-3905 -60
c60 -12 86 -15 143 -17 49 -2 53 -16 22 -77 -11 -22 -20 -45 -20 -52 0 -16
-66 -18 -76 -1 -4 6 0 16 9 23 20 15 22 55 3 55 -7 0 -19 -7 -26 -15 -7 -9
-21 -13 -31 -10 -16 6 -18 2 -12 -25 6 -32 6 -32 -28 -25 -19 4 -37 9 -41 12
-14 8 -8 33 7 33 8 0 15 9 15 20 0 21 -10 24 -48 14 -19 -6 -22 -11 -17 -35 6
-26 4 -29 -17 -29 -38 0 -68 11 -68 25 0 7 6 15 13 18 7 2 12 22 11 54 l0 49
55 -4 c31 -2 79 -8 106 -13z m3774 -23 c11 -14 6 -15 -27 -7 -4 1 8 21 12 21
2 0 9 -6 15 -14z m-3440 -16 c35 -5 67 -12 70 -17 3 -4 46 -9 95 -10 48 0 116
-6 150 -12 33 -6 97 -16 140 -22 53 -8 84 -18 94 -30 11 -13 20 -15 28 -9 16
14 391 -23 408 -40 6 -6 -3 -22 -22 -41 -34 -35 -38 -44 -22 -54 23 -14 7 -25
-35 -25 -33 0 -45 4 -45 15 0 8 5 15 11 15 6 0 9 12 7 27 -3 23 -8 28 -35 29
-28 1 -33 -2 -33 -22 0 -12 5 -26 10 -29 6 -3 10 -10 10 -15 0 -10 -203 -6
-219 5 -6 3 -28 8 -49 10 -60 6 -103 15 -123 25 -10 6 -40 10 -68 10 -56 0
-58 4 -36 46 16 32 21 84 6 69 -5 -6 -21 -34 -36 -62 -14 -29 -28 -53 -30 -53
-23 0 -35 17 -35 49 0 43 -9 81 -20 81 -13 0 -20 -61 -10 -81 9 -15 7 -19 -7
-20 -10 0 -39 -3 -65 -5 -31 -4 -48 -1 -48 5 0 6 -18 11 -40 11 -26 0 -43 5
-46 14 -4 11 -12 13 -31 5 -13 -5 -30 -9 -38 -9 -24 0 -45 31 -45 66 0 20 -5
44 -10 55 -15 27 -3 42 29 34 14 -4 55 -11 90 -15z m3831 -330 c0 -5 -4 -12
-10 -15 -5 -3 -10 -4 -10 -1 0 2 -3 12 -6 20 -5 12 -2 15 10 10 9 -3 16 -10
16 -14z m-50 -36 c0 -8 -5 -12 -10 -9 -6 4 -8 11 -5 16 9 14 15 11 15 -7z
m-185 -120 c-9 -48 -20 -42 -20 10 0 25 3 42 7 40 5 -3 9 1 9 8 1 7 3 5 6 -5
3 -11 2 -34 -2 -53z m-454 -13 c14 -9 41 -33 59 -55 28 -32 35 -48 38 -96 2
-32 -1 -73 -7 -92 -12 -38 -111 -148 -112 -126 0 7 -4 3 -9 -9 -5 -12 -21 -25
-35 -29 -14 -3 -25 -10 -25 -14 0 -26 -111 -100 -151 -100 -11 0 -27 -6 -35
-14 -7 -8 -23 -12 -34 -9 -11 3 -20 1 -20 -5 0 -6 -13 -13 -30 -17 -16 -4 -30
-11 -30 -17 0 -6 -3 -8 -7 -5 -3 4 -13 -3 -21 -15 -14 -19 -13 -22 3 -34 18
-14 18 -15 -6 -18 -6 0 -16 -8 -22 -16 -7 -8 -24 -21 -39 -29 -15 -8 -36 -21
-46 -30 -10 -9 -23 -17 -30 -19 -7 -1 -30 -13 -50 -25 -20 -13 -88 -47 -150
-76 -86 -41 -120 -52 -142 -48 -16 4 -32 2 -36 -4 -4 -7 -23 -8 -52 -4 -32 5
-47 3 -54 -7 -8 -10 -9 -10 -5 2 2 8 -7 23 -21 34 -21 16 -23 25 -18 59 5 30
2 44 -10 58 -15 17 -15 21 0 59 9 23 13 46 10 52 -4 6 -2 8 4 5 13 -9 72 24
72 41 0 6 5 12 11 12 14 0 39 25 39 39 0 6 9 11 20 11 11 0 23 6 26 14 3 8 12
12 19 10 14 -6 44 7 67 28 7 7 29 25 50 40 20 15 42 34 50 41 7 7 20 16 28 20
8 4 23 12 32 19 14 10 22 7 48 -20 16 -18 33 -32 36 -32 4 0 4 24 1 53 -4 28
-3 58 2 65 8 13 41 6 41 -9 0 -5 7 -9 16 -9 11 0 14 5 9 18 -16 37 -17 52 -5
52 8 0 11 9 7 25 -4 22 3 31 39 55 23 17 48 30 54 30 7 0 24 9 38 21 80 61
195 130 236 140 42 10 115 0 147 -20z m609 -41 c0 -5 -4 -10 -10 -10 -5 0 -10
5 -10 10 0 6 5 10 10 10 6 0 10 -4 10 -10z m25 -59 c-8 -13 -35 -15 -35 -2 0
5 8 11 18 13 21 5 26 2 17 -11z m282 -13 c-3 -8 -6 -5 -6 6 -1 11 2 17 5 13 3
-3 4 -12 1 -19z m-317 -23 c0 -8 -4 -15 -9 -15 -13 0 -22 16 -14 24 11 11 23
6 23 -9z m29 -54 c2 0 -2 -8 -9 -16 -17 -20 -70 -16 -70 5 0 12 9 15 38 14 20
-1 39 -2 41 -3z m-1159 -46 c0 -8 -4 -15 -9 -15 -13 0 -22 16 -14 24 11 11 23
6 23 -9z m-7993 -97 c-3 -8 -6 -5 -6 6 -1 11 2 17 5 13 3 -3 4 -12 1 -19z
m9263 -22 c0 -3 -4 -8 -10 -11 -5 -3 -10 -1 -10 4 0 6 5 11 10 11 6 0 10 -2
10 -4z m-10463 -168 c-3 -8 -6 -5 -6 6 -1 11 2 17 5 13 3 -3 4 -12 1 -19z
m1310 -80 c-3 -8 -6 -5 -6 6 -1 11 2 17 5 13 3 -3 4 -12 1 -19z m49 -142 c-2
-6 -5 -3 -5 7 -1 9 -5 17 -11 17 -5 0 -10 12 -10 28 1 27 1 27 16 -7 8 -19 12
-39 10 -45z m-1154 -11 c-2 -14 -6 -25 -8 -25 -2 0 -4 11 -4 25 0 14 4 25 9
25 4 0 6 -11 3 -25z m1187 -90 c0 -5 -4 -3 -9 5 -5 8 -9 22 -9 30 0 16 17 -16
18 -35z m-1079 0 c0 -8 -9 -15 -20 -15 -11 0 -20 7 -20 15 0 8 9 15 20 15 11
0 20 -7 20 -15z m1099 -90 c0 -5 -4 -3 -9 5 -5 8 -9 22 -9 30 0 16 17 -16 18
-35z m7174 12 c3 -9 16 -12 36 -9 40 6 39 -2 -1 -22 -41 -21 -55 -20 -63 4
-10 32 16 57 28 27z m2154 -43 c-3 -3 -12 -4 -19 -1 -8 3 -5 6 6 6 11 1 17 -2
13 -5z m-430 -30 c-3 -3 -12 -4 -19 -1 -8 3 -5 6 6 6 11 1 17 -2 13 -5z m233
-83 c64 -52 103 -117 108 -180 4 -53 2 -59 -35 -106 -26 -33 -53 -55 -79 -64
-21 -7 -57 -21 -79 -31 -88 -39 -188 -70 -225 -70 -21 0 -40 -4 -42 -9 -1 -6
-22 -11 -45 -12 -24 -2 -45 -9 -47 -16 -3 -7 -14 -13 -24 -13 -11 0 -31 -9
-46 -21 -46 -36 -157 -89 -192 -92 -19 -1 -34 -5 -34 -9 0 -5 -6 -8 -13 -8 -6
0 -49 -18 -95 -40 -45 -22 -91 -40 -102 -40 -11 0 -20 -5 -20 -10 0 -16 -89
-51 -140 -55 -31 -3 -49 -10 -59 -25 -17 -25 -33 -25 -56 0 -18 20 -18 21 1
35 10 8 25 15 32 15 6 0 12 7 12 15 0 26 -33 85 -52 91 -21 6 -58 73 -58 105
0 12 -5 39 -12 61 l-11 39 -23 -28 c-13 -15 -23 -22 -24 -15 0 20 100 111 150
137 25 13 73 31 105 40 117 33 286 100 403 160 21 11 44 15 64 11 24 -5 31 -2
35 13 3 12 17 21 41 25 21 3 50 13 67 22 16 8 61 22 100 30 65 13 167 48 190
65 20 14 51 18 110 13 46 -3 67 -10 95 -33z m-1385 -691 c19 -36 19 -40 -4
-69 -21 -27 -61 -22 -61 9 0 25 17 35 35 20 17 -14 21 0 5 16 -8 8 -3 54 6 54
2 0 10 -13 19 -30z m6 -103 c-1 -12 -15 -9 -19 4 -3 6 1 10 8 8 6 -3 11 -8 11
-12z m119 -37 c4 -28 1 -40 -17 -57 -13 -12 -23 -24 -23 -27 0 -3 -12 -19 -27
-35 -26 -28 -29 -29 -56 -14 -19 9 -27 20 -23 29 3 9 6 21 6 28 0 7 11 18 24
25 24 13 52 57 47 75 -1 5 5 4 13 -4 13 -10 16 -10 16 5 0 33 35 12 40 -25z
m-10 -90 c0 -5 -4 -10 -10 -10 -5 0 -10 5 -10 10 0 6 5 10 10 10 6 0 10 -4 10
-10z m-122 -61 l27 -2 -25 -4 c-14 -3 -32 -11 -42 -20 -24 -21 -35 4 -12 26
11 10 21 14 22 10 2 -5 16 -10 30 -10z m-88 -45 c0 -20 -20 -17 -21 4 -1 11
-4 9 -9 -8 -7 -22 -8 -22 -9 -4 -1 11 2 23 5 27 10 9 34 -4 34 -19z m-40 -38
c0 -3 -4 -8 -10 -11 -5 -3 -10 -1 -10 4 0 6 5 11 10 11 6 0 10 -2 10 -4z
m-9863 -38 c-3 -8 -6 -5 -6 6 -1 11 2 17 5 13 3 -3 4 -12 1 -19z m9783 -24 c0
-8 -4 -12 -10 -9 -5 3 -10 1 -10 -6 0 -7 -2 -10 -5 -7 -8 7 5 38 16 38 5 0 9
-7 9 -16z m300 -94 c0 -5 -2 -10 -4 -10 -3 0 -8 5 -11 10 -3 6 -1 10 4 10 6 0
11 -4 11 -10z m-810 -135 c0 -8 -4 -15 -10 -15 -5 0 -10 7 -10 15 0 8 5 15 10
15 6 0 10 -7 10 -15z m630 -95 c0 -5 -4 -10 -10 -10 -5 0 -10 5 -10 10 0 6 5
10 10 10 6 0 10 -4 10 -10z m-6846 -41 c-6 -11 -24 -2 -24 11 0 5 7 7 15 4 8
-4 12 -10 9 -15z m-43 -212 c-16 -16 -26 0 -10 19 9 11 15 12 17 4 2 -6 -1
-17 -7 -23z m69 23 c0 -5 -4 -10 -9 -10 -6 0 -13 5 -16 10 -3 6 1 10 9 10 9 0
16 -4 16 -10z m217 -122 c-3 -8 -6 -5 -6 6 -1 11 2 17 5 13 3 -3 4 -12 1 -19z
m-37 -219 c0 -5 -4 -9 -10 -9 -5 0 -10 7 -10 16 0 8 5 12 10 9 6 -3 10 -10 10
-16z m1112 -551 c-9 -9 -15 -9 -24 0 -9 9 -7 12 12 12 19 0 21 -3 12 -12z
m1868 -158 c0 -22 0 -42 0 -45 0 -3 -3 -4 -7 -3 -5 1 -7 9 -5 17 6 25 -8 59
-26 64 -10 3 -6 5 11 6 25 1 27 -2 27 -39z m45 -90 c-3 -5 -11 -10 -16 -10 -6
0 -7 5 -4 10 3 6 11 10 16 10 6 0 7 -4 4 -10z m222 -86 c-3 -3 -12 -4 -19 -1
-8 3 -5 6 6 6 11 1 17 -2 13 -5z m36 -71 c-7 -2 -19 -2 -25 0 -7 3 -2 5 12 5
14 0 19 -2 13 -5z m-5763 -227 c0 -3 -4 -8 -10 -11 -5 -3 -10 -1 -10 4 0 6 5
11 10 11 6 0 10 -2 10 -4z m7465 -205 c3 -5 1 -12 -5 -16 -5 -3 -10 1 -10 9 0
18 6 21 15 7z m-5451 -116 c-7 -17 -20 -20 -28 -6 -7 10 3 21 20 21 8 0 11 -6
8 -15z m2333 -7 c-3 -8 -6 -5 -6 6 -1 11 2 17 5 13 3 -3 4 -12 1 -19z m-487
-228 c0 -4 -17 -11 -37 -15 l-38 -7 24 -19 c13 -10 22 -19 20 -20 -2 0 -26 -2
-52 -4 -41 -4 -48 -2 -43 11 3 9 6 22 6 29 0 27 26 40 73 37 26 -2 47 -8 47
-12z m65 -10 c-3 -5 -10 -10 -16 -10 -5 0 -9 5 -9 10 0 6 7 10 16 10 8 0 12
-4 9 -10z m-32 -51 c-17 -17 -36 -1 -20 16 7 8 16 10 22 4 5 -6 5 -13 -2 -20z
m-226 15 c-3 -3 -12 -4 -19 -1 -8 3 -5 6 6 6 11 1 17 -2 13 -5z m48 -44 c-9
-15 -25 -2 -25 21 0 19 1 19 16 5 8 -9 12 -20 9 -26z m173 -12 c-6 -18 -28
-21 -28 -4 0 9 7 16 16 16 9 0 14 -5 12 -12z m402 -27 c0 -10 -6 -21 -14 -24
-9 -4 -13 2 -13 19 0 14 5 24 13 24 8 0 14 -9 14 -19z m5027 -1068 c-3 -10 -5
-2 -5 17 0 19 2 27 5 18 2 -10 2 -26 0 -35z m28 -1030 c1 -37 7 -111 13 -163
10 -86 28 -277 52 -555 4 -55 9 -143 9 -195 1 -52 12 -162 26 -245 26 -164 30
-235 9 -207 -6 9 -10 22 -7 29 3 7 -2 36 -10 65 -19 66 -38 236 -43 388 -11
305 -13 320 -44 495 -6 33 -10 75 -10 94 0 19 -4 58 -10 88 -10 46 -9 57 4 72
18 19 22 46 6 36 -6 -4 -10 27 -10 86 0 106 11 114 15 12z m131 -1454 c-4 -51
-15 -78 -17 -43 -1 10 -3 30 -4 43 -2 20 11 49 23 51 1 0 0 -23 -2 -51z m62
-164 l-1 -50 -8 45 c-4 25 -7 61 -7 80 l0 35 8 -30 c4 -16 8 -52 8 -80z m-61
63 c-3 -8 -6 -5 -6 6 -1 11 2 17 5 13 3 -3 4 -12 1 -19z m73 -174 c0 -27 -4
-43 -10 -39 -5 3 -10 24 -10 46 0 21 5 39 10 39 6 0 10 -21 10 -46z"/>
<path d="M7940 13049 c0 -5 5 -7 10 -4 6 3 10 8 10 11 0 2 -4 4 -10 4 -5 0
-10 -5 -10 -11z"/>
<path d="M8221 10464 c0 -11 3 -14 6 -6 3 7 2 16 -1 19 -3 4 -6 -2 -5 -13z"/>
<path d="M8090 10430 c0 -11 76 -7 87 4 3 3 -15 6 -40 6 -26 0 -47 -4 -47 -10z"/>
<path d="M8284 10408 c-3 -4 9 -8 25 -8 21 0 31 -5 31 -15 0 -9 -9 -15 -22
-15 -17 0 -19 -3 -10 -12 8 -8 15 -8 27 2 15 13 21 49 8 51 -5 0 -18 2 -31 3
-13 2 -25 -1 -28 -6z"/>
<path d="M8056 10395 c-3 -8 -1 -15 4 -15 6 0 10 7 10 15 0 8 -2 15 -4 15 -2
0 -6 -7 -10 -15z"/>
<path d="M8197 10393 c-4 -3 -7 -13 -7 -22 1 -13 3 -13 11 2 11 19 8 33 -4 20z"/>
<path d="M8459 10381 c25 -22 41 -27 41 -12 0 5 -8 11 -17 15 -10 3 -25 9 -33
12 -8 3 -4 -4 9 -15z"/>
<path d="M8085 10380 c-4 -6 5 -10 19 -10 14 0 26 5 26 10 0 6 -9 10 -19 10
-11 0 -23 -4 -26 -10z"/>
<path d="M8275 10381 c-3 -5 -1 -12 5 -16 5 -3 10 1 10 9 0 18 -6 21 -15 7z"/>
<path d="M8381 10364 c0 -11 3 -14 6 -6 3 7 2 16 -1 19 -3 4 -6 -2 -5 -13z"/>
<path d="M8051 10354 c0 -11 3 -14 6 -6 3 7 2 16 -1 19 -3 4 -6 -2 -5 -13z"/>
<path d="M8237 10357 c-11 -29 -9 -43 4 -30 6 6 9 19 7 29 -3 18 -4 18 -11 1z"/>
<path d="M8177 10344 c-4 -4 -7 -17 -7 -28 1 -19 1 -20 11 -3 11 19 8 43 -4
31z"/>
<path d="M8456 10325 c-3 -9 -6 -22 -5 -28 0 -7 5 -1 10 12 5 13 8 26 5 28 -2
2 -6 -3 -10 -12z"/>
<path d="M8590 10170 c0 -5 5 -10 11 -10 5 0 7 5 4 10 -3 6 -8 10 -11 10 -2 0
-4 -4 -4 -10z"/>
<path d="M8550 10150 c0 -5 5 -10 11 -10 5 0 7 5 4 10 -3 6 -8 10 -11 10 -2 0
-4 -4 -4 -10z"/>
<path d="M8840 10249 c0 -24 12 -25 26 -1 10 15 8 18 -7 19 -13 1 -19 -5 -19
-18z"/>
<path d="M8987 10253 c-4 -3 -7 -13 -7 -22 1 -13 3 -13 11 2 11 19 8 33 -4 20z"/>
<path d="M6368 10268 c-24 -20 -33 -58 -13 -58 9 0 13 -5 10 -11 -4 -6 -14 -8
-22 -5 -11 5 -13 2 -9 -10 3 -8 6 -20 6 -25 0 -11 54 -39 75 -39 54 0 78 113
30 144 -29 19 -56 20 -77 4z m52 -59 c0 -5 4 -8 9 -4 5 3 12 1 16 -5 3 -5 -3
-10 -14 -10 -16 0 -21 -7 -22 -27 -2 -28 -2 -28 -6 -3 -3 14 -9 30 -14 36 -5
6 -6 14 -2 17 10 11 33 8 33 -4z"/>
<path d="M8235 10000 c-7 -32 1 -54 16 -45 12 8 12 75 0 75 -5 0 -12 -13 -16
-30z"/>
<path d="M8308 9986 c-7 -39 -4 -55 8 -44 3 3 4 23 2 44 l-3 39 -7 -39z"/>
<path d="M8447 9993 c-4 -3 -7 -22 -7 -42 1 -39 12 -28 24 22 6 25 -2 35 -17
20z"/>
<path d="M8581 9974 c0 -11 3 -14 6 -6 3 7 2 16 -1 19 -3 4 -6 -2 -5 -13z"/>
<path d="M8366 9935 c4 -8 8 -15 10 -15 2 0 4 7 4 15 0 8 -4 15 -10 15 -5 0
-7 -7 -4 -15z"/>
<path d="M8703 9923 c-13 -2 -23 -11 -23 -19 0 -18 8 -18 27 1 11 11 19 13 28
5 9 -8 14 -6 19 5 6 15 -5 17 -51 8z"/>
<path d="M8964 9916 c-3 -7 -1 -29 4 -47 l10 -34 1 48 c1 47 -5 60 -15 33z"/>
<path d="M8845 9908 c-9 -22 4 -43 17 -30 7 7 7 16 0 29 -10 17 -11 17 -17 1z"/>
<path d="M9020 9866 c0 -24 23 -41 41 -30 5 3 9 14 9 25 0 11 -4 18 -9 14 -5
-3 -12 -1 -16 5 -11 18 -25 11 -25 -14z"/>
<path d="M8900 9870 c0 -5 5 -10 11 -10 5 0 7 5 4 10 -3 6 -8 10 -11 10 -2 0
-4 -4 -4 -10z"/>
<path d="M5432 4690 c0 -14 2 -19 5 -12 2 6 2 18 0 25 -3 6 -5 1 -5 -13z"/>
<path d="M6560 17636 c-6 -8 -21 -16 -33 -18 -13 -2 -23 -12 -27 -27 -4 -16
-21 -33 -49 -48 -49 -26 -55 -27 -46 -13 3 6 4 10 0 10 -3 0 -10 -10 -15 -22
-8 -22 -9 -22 -9 5 -1 15 -7 27 -13 28 -47 3 -75 12 -90 29 -9 12 -29 20 -45
20 -36 0 -46 -9 -32 -27 9 -10 15 -10 25 -2 11 9 14 8 14 -5 0 -9 -6 -16 -12
-16 -10 0 -10 -2 0 -8 9 -7 8 -13 -8 -27 -24 -21 -26 -60 -5 -69 8 -3 15 -12
15 -20 0 -22 38 -59 93 -91 27 -15 51 -34 54 -41 3 -8 16 -14 28 -14 13 0 27
-4 30 -10 3 -5 19 -7 35 -3 18 3 36 0 45 -7 20 -17 45 -5 45 21 0 12 16 37 35
56 30 29 41 34 63 28 15 -4 34 -12 42 -19 8 -8 34 -16 57 -20 34 -5 44 -2 55
12 7 10 31 22 53 27 34 9 40 14 40 36 -1 30 11 31 65 7 19 -9 38 -14 43 -11
13 8 87 -8 87 -19 0 -5 -7 -16 -15 -25 -25 -25 -12 -38 39 -37 37 0 52 6 71
26 38 41 40 68 8 105 -20 23 -44 37 -83 47 -30 8 -51 15 -45 15 5 1 -1 8 -13
17 -21 14 -27 14 -78 -2 -31 -9 -62 -23 -69 -31 -8 -7 -16 -9 -19 -4 -4 5 -20
7 -36 4 -21 -3 -38 2 -56 16 -15 12 -32 21 -39 21 -7 0 -36 16 -65 35 -29 19
-56 35 -61 35 -5 0 -19 11 -31 25 -25 29 -31 30 -48 11z"/>
<path d="M8745 17521 c-33 -3 -69 -11 -79 -17 -26 -16 -14 -44 19 -44 30 0
125 46 125 60 0 6 -1 9 -2 8 -2 -1 -30 -4 -63 -7z"/>
<path d="M4857 17466 c-4 -10 -7 -25 -6 -34 0 -11 4 -9 10 7 5 13 8 29 6 35
-2 5 -6 2 -10 -8z"/>
<path d="M5209 17256 c-3 -32 -1 -42 9 -39 14 6 17 83 3 83 -5 0 -11 -20 -12
-44z"/>
<path d="M5170 17185 c1 -26 2 -28 11 -12 8 14 8 22 0 30 -8 8 -11 3 -11 -18z"/>
<path d="M5146 17121 c2 -46 9 -102 14 -125 37 -154 52 -212 61 -220 5 -6 9 2
9 21 0 18 -4 34 -9 37 -4 3 -11 25 -15 48 -4 24 -12 66 -17 93 -14 68 -14 86
-5 112 6 18 4 22 -7 17 -12 -4 -18 7 -26 48 -10 50 -10 48 -5 -31z"/>
<path d="M8346 17182 c-8 -14 8 -29 48 -46 44 -18 72 -20 81 -6 3 5 -12 14
-34 20 -22 6 -47 17 -55 25 -16 17 -32 19 -40 7z"/>
<path d="M7670 16605 c0 -8 5 -15 10 -15 6 0 10 7 10 15 0 8 -4 15 -10 15 -5
0 -10 -7 -10 -15z"/>
<path d="M6627 15894 c-15 -15 -6 -24 23 -24 17 0 30 5 30 10 0 6 -4 10 -9 10
-5 0 -16 2 -23 5 -8 3 -17 2 -21 -1z"/>
<path d="M6774 15865 c-7 -18 2 -45 15 -45 13 0 22 27 15 45 -4 8 -10 15 -15
15 -5 0 -12 -7 -15 -15z"/>
<path d="M6716 15845 c-9 -26 -7 -32 5 -12 6 10 9 21 6 23 -2 3 -7 -2 -11 -11z"/>
<path d="M5505 15319 c-4 -6 -4 -13 0 -17 3 -3 10 0 14 7 6 9 23 12 49 9 22
-2 38 0 36 4 -8 12 -92 9 -99 -3z"/>
<path d="M8160 15320 c0 -5 5 -10 10 -10 6 0 10 5 10 10 0 6 -4 10 -10 10 -5
0 -10 -4 -10 -10z"/>
<path d="M5895 15010 c-10 -17 5 -30 34 -30 34 0 44 9 30 27 -13 15 -55 18
-64 3z"/>
<path d="M5537 14962 c-21 -48 -21 -68 -1 -76 29 -11 34 -6 34 34 0 44 7 47
52 24 16 -9 28 -12 26 -7 -27 58 -32 63 -63 63 -27 0 -34 -6 -48 -38z"/>
<path d="M6140 14936 c0 -10 9 -16 21 -16 24 0 21 23 -4 28 -10 2 -17 -3 -17
-12z"/>
<path d="M5981 14916 c-9 -10 -8 -16 4 -26 13 -11 15 -8 15 14 0 30 -3 32 -19
12z"/>
<path d="M5744 14885 c3 -9 6 -18 6 -19 0 -1 14 -1 30 2 40 6 33 26 -10 30
-27 3 -32 1 -26 -13z"/>
<path d="M5766 14795 c2 -11 4 -28 4 -37 0 -10 5 -18 10 -18 6 0 10 11 10 25
0 14 -4 25 -9 25 -5 0 -11 6 -14 13 -2 6 -3 3 -1 -8z"/>
<path d="M6242 14788 c13 -18 27 -41 31 -50 3 -10 13 -18 22 -18 8 0 15 -7 15
-16 0 -8 4 -12 10 -9 5 3 18 2 28 -4 11 -6 23 -6 33 0 11 8 9 14 -16 34 -16
14 -34 24 -40 24 -25 -3 -55 15 -55 32 0 10 -9 23 -19 29 -33 17 -35 12 -9
-22z"/>
<path d="M6147 14755 c-6 -16 63 -36 85 -24 10 5 18 12 18 15 0 3 -4 2 -10 -1
-5 -3 -10 0 -10 8 0 17 -78 19 -83 2z"/>
<path d="M5985 14561 c-8 -25 1 -41 21 -41 18 0 18 19 0 43 -14 18 -14 17 -21
-2z"/>
<path d="M6030 14511 c0 -17 18 -21 24 -6 3 9 0 15 -9 15 -8 0 -15 -4 -15 -9z"/>
<path d="M4500 14455 c-1 -33 -2 -179 -1 -325 2 -284 17 -460 57 -678 13 -73
28 -172 34 -220 5 -48 16 -107 25 -132 13 -41 14 -42 10 -10 -3 19 -9 78 -15
130 -6 52 -23 176 -39 275 -42 262 -51 358 -52 565 -2 219 -14 486 -19 395z"/>
<path d="M5610 14470 c0 -5 5 -10 11 -10 5 0 7 5 4 10 -3 6 -8 10 -11 10 -2 0
-4 -4 -4 -10z"/>
<path d="M8552 14400 c0 -14 2 -19 5 -12 2 6 2 18 0 25 -3 6 -5 1 -5 -13z"/>
<path d="M6085 14390 c-4 -6 5 -10 20 -10 15 0 24 4 20 10 -3 6 -12 10 -20 10
-8 0 -17 -4 -20 -10z"/>
<path d="M5640 14336 c0 -9 30 -14 35 -6 4 6 -3 10 -14 10 -12 0 -21 -2 -21
-4z"/>
<path d="M8550 14295 c0 -14 2 -25 4 -25 2 0 6 11 8 25 3 14 1 25 -3 25 -5 0
-9 -11 -9 -25z"/>
<path d="M8542 14230 c0 -19 2 -27 5 -17 2 9 2 25 0 35 -3 9 -5 1 -5 -18z"/>
<path d="M8543 14140 c0 -25 2 -35 4 -22 2 12 2 32 0 45 -2 12 -4 2 -4 -23z"/>
<path d="M8552 14015 c0 -16 2 -22 5 -12 2 9 2 23 0 30 -3 6 -5 -1 -5 -18z"/>
<path d="M7986 13985 c-3 -8 -1 -15 4 -15 6 0 10 7 10 15 0 8 -2 15 -4 15 -2
0 -6 -7 -10 -15z"/>
<path d="M8550 13965 c0 -11 5 -27 10 -35 8 -12 10 -12 10 5 0 11 -5 27 -10
35 -8 12 -10 12 -10 -5z"/>
<path d="M10598 13863 c7 -3 16 -2 19 1 4 3 -2 6 -13 5 -11 0 -14 -3 -6 -6z"/>
<path d="M10630 13853 c0 -5 72 -33 86 -33 33 0 10 17 -36 26 -27 6 -50 9 -50
7z"/>
<path d="M8572 13800 c0 -14 2 -19 5 -12 2 6 2 18 0 25 -3 6 -5 1 -5 -13z"/>
<path d="M8572 13745 c0 -16 3 -52 8 -80 l7 -50 0 50 c1 28 -3 64 -7 80 l-8
30 0 -30z"/>
<path d="M8582 13590 c0 -14 2 -19 5 -12 2 6 2 18 0 25 -3 6 -5 1 -5 -13z"/>
<path d="M5555 13570 c3 -5 8 -10 11 -10 2 0 4 5 4 10 0 6 -5 10 -11 10 -5 0
-7 -4 -4 -10z"/>
<path d="M8572 13535 c0 -16 2 -22 5 -12 2 9 2 23 0 30 -3 6 -5 -1 -5 -18z"/>
<path d="M11120 13520 c0 -5 5 -10 11 -10 5 0 7 5 4 10 -3 6 -8 10 -11 10 -2
0 -4 -4 -4 -10z"/>
<path d="M8080 13500 c0 -5 6 -10 14 -10 8 0 18 5 21 10 3 6 -3 10 -14 10 -12
0 -21 -4 -21 -10z"/>
<path d="M8547 13492 c1 -8 3 -23 3 -34 0 -27 5 -21 14 15 4 17 3 26 -3 23 -5
-3 -11 -3 -14 1 -2 5 -2 2 0 -5z"/>
<path d="M8606 13439 c-8 -42 0 -50 9 -9 4 17 5 34 2 36 -2 3 -7 -10 -11 -27z"/>
<path d="M8378 13440 c12 -11 23 -20 25 -20 3 0 7 9 10 20 4 17 0 20 -26 20
l-31 0 22 -20z"/>
<path d="M8535 13404 c-4 -16 -11 -39 -16 -52 -13 -32 -11 -49 5 -49 9 0 15
19 20 60 6 64 1 88 -9 41z"/>
<path d="M11330 13381 c0 -5 7 -11 15 -15 8 -3 15 -1 15 3 0 5 -7 11 -15 15
-8 3 -15 1 -15 -3z"/>
<path d="M8435 13370 c4 -6 11 -8 16 -5 14 9 11 15 -7 15 -8 0 -12 -5 -9 -10z"/>
<path d="M8582 13297 c-14 -94 -15 -173 -2 -97 12 64 23 180 18 180 -2 0 -9
-37 -16 -83z"/>
<path d="M8253 13343 c-20 -7 -15 -23 7 -23 11 0 20 4 20 9 0 13 -12 19 -27
14z"/>
<path d="M11348 13334 c-3 -5 1 -20 8 -34 12 -22 14 -22 14 -5 0 24 -16 51
-22 39z"/>
<path d="M7837 13323 c-4 -3 -7 -15 -7 -27 0 -20 0 -20 15 0 8 10 15 22 15 27
0 9 -14 9 -23 0z"/>
<path d="M5730 13300 c0 -6 7 -10 15 -10 8 0 15 2 15 4 0 2 -7 6 -15 10 -8 3
-15 1 -15 -4z"/>
<path d="M5761 13248 c-1 -10 5 -18 13 -18 8 0 22 -3 31 -6 15 -6 15 -4 4 14
-9 15 -17 18 -25 11 -8 -7 -14 -6 -17 3 -4 8 -6 7 -6 -4z"/>
<path d="M8018 13183 c7 -3 16 -2 19 1 4 3 -2 6 -13 5 -11 0 -14 -3 -6 -6z"/>
<path d="M7920 13160 c0 -11 7 -20 15 -20 8 0 15 9 15 20 0 11 -7 20 -15 20
-8 0 -15 -9 -15 -20z"/>
<path d="M8561 13143 c-1 -6 -4 -20 -7 -30 -5 -17 -5 -17 6 0 6 10 9 23 6 30
-3 9 -5 9 -5 0z"/>
<path d="M11533 13130 c6 -8 12 -16 13 -18 1 -1 4 5 6 15 4 13 0 19 -13 19
-14 0 -16 -3 -6 -16z"/>
<path d="M8040 13130 c0 -5 5 -10 10 -10 6 0 10 5 10 10 0 6 -4 10 -10 10 -5
0 -10 -4 -10 -10z"/>
<path d="M11660 13130 c0 -5 5 -10 11 -10 5 0 7 5 4 10 -3 6 -8 10 -11 10 -2
0 -4 -4 -4 -10z"/>
<path d="M8120 13109 c0 -5 14 -9 30 -9 17 0 30 4 30 8 0 5 -13 9 -30 10 -16
0 -30 -4 -30 -9z"/>
<path d="M8067 13102 c-9 -2 -15 -8 -12 -13 8 -12 45 -12 45 0 0 13 -12 18
-33 13z"/>
<path d="M11577 13076 c-4 -9 -11 -14 -17 -11 -5 3 -10 -1 -10 -9 0 -9 7 -16
15 -16 17 0 29 22 23 42 -3 8 -7 6 -11 -6z"/>
<path d="M11792 12880 c0 -14 2 -19 5 -12 2 6 2 18 0 25 -3 6 -5 1 -5 -13z"/>
<path d="M11771 12814 c0 -11 3 -14 6 -6 3 7 2 16 -1 19 -3 4 -6 -2 -5 -13z"/>
<path d="M11821 12734 c0 -11 3 -14 6 -6 3 7 2 16 -1 19 -3 4 -6 -2 -5 -13z"/>
<path d="M11717 12627 c-12 -8 -18 -22 -15 -38 2 -20 9 -24 36 -24 19 -1 32 4
32 12 0 7 -6 10 -14 7 -11 -4 -16 3 -18 26 -3 28 -5 30 -21 17z"/>
<path d="M11762 12620 c0 -14 2 -19 5 -12 2 6 2 18 0 25 -3 6 -5 1 -5 -13z"/>
<path d="M11812 12520 c0 -14 2 -19 5 -12 2 6 2 18 0 25 -3 6 -5 1 -5 -13z"/>
<path d="M11760 12389 c0 -5 5 -7 10 -4 6 3 10 8 10 11 0 2 -4 4 -10 4 -5 0
-10 -5 -10 -11z"/>
<path d="M11740 12300 c-13 -8 -12 -10 3 -10 9 0 17 5 17 10 0 12 -1 12 -20 0z"/>
<path d="M11952 12075 c0 -16 2 -22 5 -12 2 9 2 23 0 30 -3 6 -5 -1 -5 -18z"/>
<path d="M11800 11676 c0 -9 7 -16 16 -16 17 0 14 22 -4 28 -7 2 -12 -3 -12
-12z"/>
<path d="M11876 11671 c-4 -5 -2 -20 3 -33 9 -21 10 -21 10 10 1 32 -3 39 -13
23z"/>
<path d="M11865 11290 c3 -5 8 -10 11 -10 2 0 4 5 4 10 0 6 -5 10 -11 10 -5 0
-7 -4 -4 -10z"/>
<path d="M11921 11254 c0 -11 3 -14 6 -6 3 7 2 16 -1 19 -3 4 -6 -2 -5 -13z"/>
<path d="M11840 11230 c0 -5 5 -10 10 -10 6 0 10 5 10 10 0 6 -4 10 -10 10 -5
0 -10 -4 -10 -10z"/>
<path d="M11833 11165 c-14 -31 -6 -32 18 -3 22 25 23 28 7 28 -7 0 -18 -11
-25 -25z"/>
<path d="M11962 11080 c0 -14 2 -19 5 -12 2 6 2 18 0 25 -3 6 -5 1 -5 -13z"/>
<path d="M11940 10590 c0 -5 7 -10 15 -10 8 0 15 5 15 10 0 6 -7 10 -15 10 -8
0 -15 -4 -15 -10z"/>
<path d="M12238 10480 c-4 -14 -9 -59 -12 -100 l-5 -75 14 80 c15 81 17 148 3
95z"/>
<path d="M11855 10460 c3 -5 10 -10 16 -10 5 0 9 5 9 10 0 6 -7 10 -16 10 -8
0 -12 -4 -9 -10z"/>
<path d="M11892 10421 c-21 -13 5 -19 53 -13 32 4 36 6 20 13 -27 10 -57 11
-73 0z"/>
<path d="M12202 10285 c0 -16 2 -22 5 -12 2 9 2 23 0 30 -3 6 -5 -1 -5 -18z"/>
<path d="M11895 10290 c3 -5 10 -10 16 -10 5 0 9 5 9 10 0 6 -7 10 -16 10 -8
0 -12 -4 -9 -10z"/>
<path d="M12051 9821 c-7 -5 -9 -11 -5 -14 5 -3 15 1 22 9 14 16 5 18 -17 5z"/>
<path d="M12412 9440 c0 -14 2 -19 5 -12 2 6 2 18 0 25 -3 6 -5 1 -5 -13z"/>
<path d="M12422 9375 c0 -16 2 -22 5 -12 2 9 2 23 0 30 -3 6 -5 -1 -5 -18z"/>
<path d="M12430 9157 l5 -152 3 144 c1 80 -1 148 -5 152 -4 5 -6 -60 -3 -144z"/>
<path d="M12411 8983 c0 -12 -5 -25 -11 -28 -5 -3 -10 -11 -10 -16 0 -6 7 -3
16 5 8 9 13 26 11 38 -4 23 -4 23 -6 1z"/>
<path d="M12400 8710 c0 -5 5 -10 11 -10 5 0 7 5 4 10 -3 6 -8 10 -11 10 -2 0
-4 -4 -4 -10z"/>
<path d="M12706 8410 c8 -43 14 -51 14 -19 0 13 -5 31 -10 39 -7 11 -8 5 -4
-20z"/>
<path d="M10680 8370 c0 -5 5 -10 10 -10 6 0 10 5 10 10 0 6 -4 10 -10 10 -5
0 -10 -4 -10 -10z"/>
<path d="M10717 8303 c-4 -3 -7 -15 -7 -25 0 -13 7 -18 25 -18 20 0 25 5 25
25 0 18 -5 25 -18 25 -10 0 -22 -3 -25 -7z"/>
<path d="M12645 8160 c3 -5 8 -10 11 -10 2 0 4 5 4 10 0 6 -5 10 -11 10 -5 0
-7 -4 -4 -10z"/>
<path d="M12650 8078 c0 -13 7 -43 15 -68 l15 -45 -6 40 c-4 22 -7 52 -8 68
-1 32 -16 37 -16 5z"/>
<path d="M12191 7993 c-58 -6 -124 -17 -146 -22 -22 -6 -51 -13 -65 -15 -14
-3 -26 -5 -27 -7 -2 -1 -7 -2 -12 -3 -5 0 -13 -5 -18 -10 -11 -11 48 -3 177
23 58 12 152 25 210 30 95 6 100 8 46 12 -32 2 -106 -1 -165 -8z"/>
<path d="M12448 7983 c6 -2 18 -2 25 0 6 3 1 5 -13 5 -14 0 -19 -2 -12 -5z"/>
<path d="M12498 7973 c7 -3 16 -2 19 1 4 3 -2 6 -13 5 -11 0 -14 -3 -6 -6z"/>
<path d="M12590 7956 c0 -2 7 -7 16 -10 8 -3 12 -2 9 4 -6 10 -25 14 -25 6z"/>
<path d="M10305 7930 c3 -5 12 -7 20 -3 21 7 19 13 -6 13 -11 0 -18 -4 -14
-10z"/>
<path d="M10199 7888 c0 -2 -2 -16 -3 -33 -4 -38 5 -55 15 -29 11 28 11 64 -1
64 -5 0 -10 -1 -11 -2z"/>
<path d="M11790 7880 c0 -5 7 -10 15 -10 8 0 15 5 15 10 0 6 -7 10 -15 10 -8
0 -15 -4 -15 -10z"/>
<path d="M922 7865 c-76 -21 -178 -70 -185 -89 -8 -21 5 -20 45 4 55 32 115
49 227 66 199 29 786 8 1016 -35 28 -6 70 -13 95 -16 25 -3 63 -10 85 -16 60
-16 135 -26 135 -19 0 6 -102 30 -185 45 -11 2 -56 10 -100 18 -96 19 -200 35
-275 43 -30 4 -224 8 -430 10 -308 3 -385 1 -428 -11z"/>
<path d="M11747 7839 c8 -8 16 -8 30 0 16 9 14 10 -11 11 -22 0 -27 -3 -19
-11z"/>
<path d="M12570 7823 c0 -5 7 -17 15 -27 10 -13 15 -44 15 -92 0 -74 13 -106
23 -56 3 15 11 48 18 75 12 46 12 48 -16 77 -27 28 -55 40 -55 23z"/>
<path d="M2377 7745 c17 -7 76 -26 130 -40 200 -55 362 -123 415 -173 36 -33
46 -23 15 14 -30 35 -126 84 -222 114 -38 12 -79 25 -90 30 -27 12 -251 70
-267 70 -7 -1 1 -7 19 -15z"/>
<path d="M4516 7465 c-3 -8 -1 -15 4 -15 6 0 10 7 10 15 0 8 -2 15 -4 15 -2 0
-6 -7 -10 -15z"/>
<path d="M4258 7453 c-10 -2 -18 -11 -18 -19 0 -18 15 -18 34 2 25 24 22 27
-16 17z"/>
<path d="M4410 7455 c0 -3 9 -15 19 -26 16 -18 22 -19 39 -8 16 10 18 16 10
26 -10 12 -68 19 -68 8z"/>
<path d="M4377 7439 c-24 -14 -21 -24 8 -27 16 -1 25 3 25 13 0 20 -12 25 -33
14z"/>
<path d="M4025 7330 c-3 -5 1 -10 10 -10 9 0 13 5 10 10 -3 6 -8 10 -10 10 -2
0 -7 -4 -10 -10z"/>
<path d="M3976 7244 c-11 -28 -6 -54 9 -54 22 0 40 51 23 62 -19 11 -25 10
-32 -8z"/>
<path d="M3920 7209 c0 -5 5 -7 10 -4 6 3 10 8 10 11 0 2 -4 4 -10 4 -5 0 -10
-5 -10 -11z"/>
<path d="M10345 7190 c-3 -6 1 -13 10 -16 19 -8 30 0 20 15 -8 14 -22 14 -30
1z"/>
<path d="M4015 6970 c3 -5 13 -10 21 -10 8 0 14 5 14 10 0 6 -9 10 -21 10 -11
0 -17 -4 -14 -10z"/>
<path d="M4057 6843 c-12 -11 -8 -23 8 -23 8 0 15 7 15 15 0 16 -12 20 -23 8z"/>
<path d="M2805 6800 c-3 -5 -1 -10 4 -10 6 0 11 5 11 10 0 6 -2 10 -4 10 -3 0
-8 -4 -11 -10z"/>
<path d="M1590 6311 c0 -6 5 -13 10 -16 6 -3 10 1 10 9 0 9 -4 16 -10 16 -5 0
-10 -4 -10 -9z"/>
<path d="M6400 6020 c0 -5 4 -10 9 -10 6 0 13 5 16 10 3 6 -1 10 -9 10 -9 0
-16 -4 -16 -10z"/>
<path d="M7261 5911 c-8 -5 -9 -11 -3 -15 6 -3 8 -15 5 -25 -3 -10 0 -22 6
-25 7 -5 11 7 11 33 0 23 -1 41 -2 41 -2 0 -9 -4 -17 -9z"/>
<path d="M5042 5885 c0 -16 2 -22 5 -12 2 9 2 23 0 30 -3 6 -5 -1 -5 -18z"/>
<path d="M5100 5895 c0 -8 5 -15 10 -15 6 0 10 7 10 15 0 8 -4 15 -10 15 -5 0
-10 -7 -10 -15z"/>
<path d="M7615 5846 c-9 -18 -17 -43 -18 -54 -1 -17 -10 -23 -44 -28 -52 -8
-71 5 -75 49 -2 21 -9 33 -20 35 -14 3 -18 -4 -18 -30 0 -19 -7 -43 -15 -54
-19 -25 -19 -70 0 -78 8 -3 15 -1 15 4 0 6 4 10 10 10 5 0 7 -6 4 -13 -6 -17
31 -51 45 -42 6 3 11 18 12 33 0 15 3 21 6 15 2 -7 10 -13 17 -13 6 0 17 -14
23 -31 12 -32 19 -33 66 -14 13 6 20 0 28 -23 l11 -31 88 0 c98 0 102 2 119
65 15 56 7 74 -35 74 -19 0 -34 5 -34 10 0 6 -9 10 -20 10 -15 0 -20 -7 -21
-27 -1 -17 -5 -7 -12 27 -13 59 -26 69 -42 33 -12 -29 -31 -36 -56 -20 -14 8
-18 18 -13 32 3 11 8 37 11 58 6 47 -10 49 -32 3z m-135 -80 c0 -25 -12 -46
-26 -46 -17 0 -18 14 -2 40 15 23 28 26 28 6z m204 -51 c7 -20 -33 -61 -67
-67 -22 -4 -27 -2 -25 11 2 9 16 18 33 21 21 4 31 12 33 28 4 25 17 29 26 7z
m120 -14 c3 -5 -1 -12 -10 -15 -22 -9 -24 -8 -24 9 0 16 25 21 34 6z m-18 -65
c6 -26 -1 -46 -17 -46 -5 0 -9 16 -9 35 0 40 17 47 26 11z"/>
<path d="M7505 5861 c-17 -28 24 -42 45 -16 8 9 8 15 2 15 -6 0 -17 3 -25 6
-8 3 -18 1 -22 -5z"/>
<path d="M5127 5826 c-3 -8 1 -20 9 -26 12 -10 14 -8 14 14 0 28 -14 35 -23
12z"/>
<path d="M7528 5813 c-17 -4 -26 -33 -10 -33 10 1 42 26 42 34 0 6 -5 6 -32
-1z"/>
<path d="M7840 5745 c0 -16 16 -20 24 -6 3 5 -1 11 -9 15 -9 3 -15 0 -15 -9z"/>
<path d="M7962 5703 c-13 -3 -21 -10 -19 -16 7 -21 35 -19 47 2 6 12 7 20 3
20 -4 -1 -18 -4 -31 -6z"/>
<path d="M7301 5651 l-24 -6 27 -13 c34 -15 56 -15 56 -1 0 8 5 7 16 -2 13
-10 17 -10 24 1 5 8 6 18 4 22 -6 9 -69 9 -103 -1z"/>
<path d="M7592 5611 c-9 -5 -11 -17 -6 -35 6 -25 8 -26 22 -12 19 19 5 61 -16
47z"/>
<path d="M7827 5550 c-3 -11 -1 -23 4 -26 5 -3 9 6 9 20 0 31 -6 34 -13 6z"/>
<path d="M7709 5518 c-1 -2 -3 -24 -5 -50 -3 -36 -1 -48 10 -48 7 0 16 14 20
31 10 50 7 69 -9 69 -8 0 -15 -1 -16 -2z"/>
<path d="M8075 5510 c-8 -13 26 -59 45 -60 10 0 11 3 4 8 -6 4 -14 19 -18 35
-6 27 -20 35 -31 17z"/>
<path d="M8560 5485 c1 -26 2 -28 11 -12 8 14 8 22 0 30 -8 8 -11 3 -11 -18z"/>
<path d="M7613 5486 c-10 -11 -9 -15 1 -19 14 -5 36 10 36 25 0 13 -24 9 -37
-6z"/>
<path d="M8093 5391 c-10 -16 -8 -22 12 -41 27 -25 37 -15 27 25 -10 35 -23
41 -39 16z"/>
<path d="M10420 5193 c0 -29 2 -29 19 5 10 18 9 22 -4 22 -10 0 -15 -9 -15
-27z"/>
<path d="M10569 5176 c-3 -32 -1 -42 9 -39 14 6 17 83 3 83 -5 0 -11 -20 -12
-44z"/>
<path d="M3272 5180 c0 -14 2 -19 5 -12 2 6 2 18 0 25 -3 6 -5 1 -5 -13z"/>
<path d="M3297 5194 c-9 -10 2 -24 19 -24 8 0 14 7 14 15 0 15 -21 21 -33 9z"/>
<path d="M6455 5189 c-12 -6 -27 -20 -34 -31 -11 -18 -10 -23 16 -44 15 -13
32 -22 37 -21 13 4 38 78 32 94 -6 15 -23 16 -51 2z"/>
<path d="M6216 5174 c-7 -19 2 -37 15 -29 12 8 12 45 0 45 -5 0 -12 -7 -15
-16z"/>
<path d="M10546 5182 c-2 -4 -1 -14 5 -22 7 -12 9 -10 9 8 0 23 -5 28 -14 14z"/>
<path d="M8674 5172 c-6 -4 -13 -15 -17 -24 -5 -15 -1 -18 23 -18 17 0 30 4
30 8 0 17 -25 41 -36 34z"/>
<path d="M9586 5115 c-7 -29 0 -48 15 -40 12 8 12 65 0 65 -5 0 -12 -11 -15
-25z"/>
<path d="M4240 5070 c0 -5 5 -10 11 -10 5 0 7 5 4 10 -3 6 -8 10 -11 10 -2 0
-4 -4 -4 -10z"/>
<path d="M6080 5056 c0 -9 5 -16 10 -16 6 0 10 4 10 9 0 6 -4 13 -10 16 -5 3
-10 -1 -10 -9z"/>
<path d="M11545 5060 c3 -5 13 -10 21 -10 8 0 12 5 9 10 -3 6 -13 10 -21 10
-8 0 -12 -4 -9 -10z"/>
<path d="M3070 5050 c0 -5 5 -10 10 -10 6 0 10 5 10 10 0 6 -4 10 -10 10 -5 0
-10 -4 -10 -10z"/>
<path d="M4400 5029 c0 -5 5 -7 10 -4 6 3 10 8 10 11 0 2 -4 4 -10 4 -5 0 -10
-5 -10 -11z"/>
<path d="M5536 5031 c-4 -5 -2 -12 3 -15 5 -4 12 -2 15 3 4 5 2 12 -3 15 -5 4
-12 2 -15 -3z"/>
<path d="M6517 5034 c-8 -8 1 -24 14 -24 5 0 9 7 9 15 0 15 -12 20 -23 9z"/>
<path d="M6530 4940 c0 -5 5 -10 10 -10 6 0 10 5 10 10 0 6 -4 10 -10 10 -5 0
-10 -4 -10 -10z"/>
<path d="M6576 4935 c-3 -8 2 -21 10 -30 21 -20 22 -19 16 10 -5 31 -18 40
-26 20z"/>
<path d="M6552 4888 c-19 -19 -14 -30 11 -26 12 2 22 9 22 17 0 19 -18 24 -33
9z"/>
</g>
</svg>
